<svg width="24" height="24" viewBox="0 0 24 24" fill="none" xmlns="http://www.w3.org/2000/svg">
<circle cx="11.9516" cy="6.59029" r="5.55898" fill="#221F20"/>
<path fill-rule="evenodd" clip-rule="evenodd" d="M9.94201 13.2005C4.90677 13.5362 0.994141 17.7184 0.994141 22.7648C0.994141 22.8774 1.08545 22.9687 1.19809 22.9687H22.5968C22.8229 22.9687 23.0062 22.7855 23.0062 22.5594C23.0062 17.6286 19.1832 13.5422 14.2633 13.2142L12.0002 13.0633L9.94201 13.2005ZM20.2636 19.23C20.2636 20.9412 18.8764 22.3285 17.1651 22.3285C15.4539 22.3285 14.0666 20.9412 14.0666 19.23C14.0666 17.5187 15.4539 16.1314 17.1651 16.1314C18.8764 16.1314 20.2636 17.5187 20.2636 19.23ZM18.5763 18.2284C18.6771 18.3292 18.6771 18.4927 18.5763 18.5935L16.9381 20.2317C16.8373 20.3325 16.6738 20.3325 16.573 20.2317L15.7539 19.4126C15.6531 19.3118 15.6531 19.1483 15.7539 19.0474C15.8547 18.9466 16.0182 18.9466 16.1191 19.0474L16.7555 19.6839L18.2111 18.2284C18.3119 18.1275 18.4754 18.1275 18.5763 18.2284Z" fill="#221F20"/>
</svg>
