<svg width="16" height="21" viewBox="0 0 16 21" fill="none" xmlns="http://www.w3.org/2000/svg">
<path d="M2 20.5C1.45 20.5 0.979002 20.304 0.587002 19.912C0.195002 19.52 -0.000664969 19.0493 1.69779e-06 18.5V2.5C1.69779e-06 1.95 0.196001 1.479 0.588001 1.087C0.980001 0.695002 1.45067 0.499335 2 0.500002H14C14.55 0.500002 15.021 0.696002 15.413 1.088C15.805 1.48 16.0007 1.95067 16 2.5V18.5C16 19.05 15.804 19.521 15.412 19.913C15.02 20.305 14.5493 20.5007 14 20.5H2ZM7 9.5L9.5 8L12 9.5V2.5H7V9.5Z" fill="#6FA5AB"/>
</svg>
