<svg width="637" height="637" viewBox="0 0 637 637" fill="none" xmlns="http://www.w3.org/2000/svg">
<path d="M553.115 283.468C540.011 197.698 486.287 92.3237 380.147 81.2955C380.147 81.2955 299.56 71.4933 220.119 86.3503C172.97 95.167 131.629 121.415 105.469 159.137C79.3092 196.86 70.5714 242.858 81.1755 286.712C88.064 315.195 92.7171 344.674 91.4396 373.943C89.2161 424.881 90.4953 472.429 139.931 502.808C184.071 529.932 239.62 553.855 292.617 558.045C328.632 560.891 369.021 556.285 403.733 546.908C580.633 499.118 566.219 369.238 553.115 283.468Z" fill="#F4F7FA"/>
<path d="M146.306 110.647L151.233 101.477L154.147 111.472L160.874 103.527L161.645 113.908L169.878 107.535L168.474 117.85L177.85 113.328L174.334 123.126L184.445 120.652L178.968 129.505L189.373 129.187L182.173 136.708L192.419 138.56L183.813 144.419L193.449 148.361L183.813 152.303L192.419 158.163L182.173 160.016L189.373 167.536L178.968 167.219L184.445 176.071L174.334 173.597L177.85 183.396L168.474 178.873L169.878 189.187L161.645 182.816L160.874 193.196L154.147 185.252L151.233 195.245L146.306 186.076L141.378 195.245L138.464 185.252L131.739 193.196L130.966 182.816L122.735 189.187L124.138 178.873L114.761 183.396L118.279 173.597L108.166 176.071L113.645 167.219L103.239 167.536L110.438 160.016L100.194 158.163L108.798 152.303L99.1643 148.361L108.798 144.419L100.194 138.56L110.438 136.708L103.239 129.187L113.645 129.505L108.166 120.652L118.279 123.126L114.761 113.328L124.138 117.85L122.735 107.535L130.966 113.908L131.739 103.527L138.464 111.472L141.378 101.477L146.306 110.647Z" fill="url(#paint0_linear_47257_108841)"/>
<path d="M180.448 155.533L189.687 152.816L181.193 148.278L189.665 143.699L180.414 141.026L187.749 134.786L178.144 134.094L184.021 126.466L174.481 127.788L178.643 119.103L169.588 122.379L171.854 113.02L163.678 118.106L163.948 108.48L157.008 115.156L155.272 105.684L149.87 113.657L146.201 104.753L142.577 113.674L137.137 105.726L135.446 115.208L128.473 108.565L128.791 118.19L120.589 113.142L122.9 122.491L113.829 119.258L118.032 127.924L108.488 126.648L114.401 134.247L104.8 134.986L112.164 141.189L102.925 143.907L111.418 148.445L102.947 153.024L112.198 155.696L104.863 161.937L114.47 162.627L108.592 170.256L118.132 168.935L113.968 177.62L123.024 174.344L120.757 183.703L128.935 178.616L128.664 188.243L135.606 181.567L137.341 191.04L142.743 183.066L146.411 191.97L150.037 183.049L155.474 190.995L157.166 181.516L164.138 188.157L163.822 178.533L172.023 183.581L169.712 174.232L178.784 177.464L174.579 168.8L184.126 170.075L178.211 162.474L187.814 161.738L180.448 155.533Z" fill="url(#paint1_linear_47257_108841)"/>
<path d="M183.897 148.361C183.897 167.593 169.452 183.454 150.82 185.683C149.341 185.861 147.836 185.952 146.306 185.952C125.546 185.952 108.714 169.121 108.714 148.361C108.714 138.905 112.205 130.264 117.969 123.66C124.861 115.762 135.001 110.769 146.306 110.769C167.067 110.771 183.897 127.601 183.897 148.361Z" fill="url(#paint2_linear_47257_108841)"/>
<path opacity="0.2" d="M163.556 170.529C161.654 175.829 157.184 181.038 150.82 185.683C149.341 185.861 147.836 185.952 146.306 185.952C125.546 185.952 108.714 169.121 108.714 148.361C108.714 138.905 112.205 130.264 117.969 123.66C118.266 126.397 119.67 129.445 123.068 132.578C126.543 135.777 132.11 139.065 140.72 142.188C161.271 149.643 167.241 160.251 163.556 170.529Z" fill="url(#paint3_linear_47257_108841)"/>
<path opacity="0.3" d="M166.165 168.222C177.134 157.253 177.134 139.469 166.165 128.5C155.196 117.531 137.411 117.531 126.442 128.5C115.473 139.469 115.473 157.253 126.442 168.222C137.411 179.191 155.196 179.191 166.165 168.222Z" fill="white"/>
<path d="M556.457 495.052L86.3901 490.921V503.146C86.3901 506.463 88.4402 509.286 91.2166 509.789L224.137 533.861C225.715 534.146 227.313 534.221 228.906 534.088L551.349 506.64C554.228 506.394 556.457 503.565 556.457 500.157V495.052Z" fill="url(#paint4_linear_47257_108841)"/>
<path d="M385.871 475.236L91.2508 497.6C85.978 498 81.6924 493.747 81.6924 488.102V261.872C81.6924 256.225 85.9797 251.647 91.2508 251.647H385.871C390.215 251.647 393.726 255.785 393.726 260.89V465.396C393.726 470.501 390.215 474.907 385.871 475.236Z" fill="url(#paint5_linear_47257_108841)"/>
<path d="M390.569 475.236L95.9486 497.6C90.6757 498 86.3901 493.747 86.3901 488.102V261.872C86.3901 256.225 90.6774 251.647 95.9486 251.647H390.569C394.913 251.647 398.424 255.785 398.424 260.89V465.396C398.424 470.501 394.913 474.907 390.569 475.236Z" fill="url(#paint6_linear_47257_108841)"/>
<path d="M381.391 460.817L106.983 480.243C102.693 480.547 99.2073 477.056 99.2073 472.446V274.384C99.2073 269.774 102.694 266.022 106.983 266.003L381.391 264.784C384.975 264.769 387.873 268.16 387.873 272.358V452.759C387.873 456.955 384.975 460.564 381.391 460.817Z" fill="white"/>
<path d="M253.663 257.836C253.663 259.937 252.147 261.647 250.274 261.652C248.399 261.659 246.878 259.956 246.878 257.849C246.878 255.743 248.399 254.034 250.274 254.032C252.147 254.031 253.663 255.732 253.663 257.836Z" fill="white"/>
<path opacity="0.2" d="M319.585 413.19C296.873 400.063 279.013 416.696 261.778 400.285C251.328 390.335 256.459 382.916 243.602 368.049C229.361 351.581 220.09 357.116 205.779 342.295C187.683 323.556 196.734 308.976 181.147 295.521C162.238 279.2 141.845 294.306 123.844 278.652C116.08 271.901 111.82 262.085 109.597 251.646H91.9823C88.8952 251.646 86.3901 254.333 86.3901 257.647V492.152C86.3901 495.466 88.8969 497.962 91.9823 497.727L392.25 474.834C393.723 474.723 395.03 473.797 395.869 472.458C373.888 471.598 360.384 463.683 351.753 455.501C334.866 439.497 337.796 423.713 319.585 413.19Z" fill="#B7C0CE"/>
<path d="M402.313 474.222L86.3901 497.761L224.138 522.707C225.716 522.992 227.315 523.07 228.908 522.934L556.458 495.052L407.339 474.381C405.67 474.149 403.989 474.096 402.313 474.222Z" fill="url(#paint7_linear_47257_108841)"/>
<path opacity="0.3" d="M132.488 498.354L395.503 478.464L476.904 489.657L216.154 510.918L132.488 498.354Z" fill="url(#paint8_linear_47257_108841)"/>
<path d="M155.191 281.554L124.976 281.66V271.882H155.191V281.554Z" fill="#D8DEE8"/>
<path d="M313.516 281.001L174.385 281.487V271.882H313.516V281.001Z" fill="#D8DEE8"/>
<path d="M203.552 297.621L174.385 297.896V288.29L203.552 288.116V297.621Z" fill="#D8DEE8"/>
<path d="M356.548 296.174L222.083 297.446V288.006L356.548 287.204V296.174Z" fill="#D8DEE8"/>
<path d="M203.552 313.855L174.385 314.305V304.699L203.552 304.352V313.855Z" fill="#D8DEE8"/>
<path d="M356.548 311.496L222.083 313.57V304.131L356.548 302.527V311.496Z" fill="#D8DEE8"/>
<path d="M155.191 331.125L124.976 331.77V321.992L155.191 321.451V331.125Z" fill="#D8DEE8"/>
<path d="M313.516 327.739L174.385 330.715V321.108L313.516 318.618V327.739Z" fill="#D8DEE8"/>
<path d="M203.552 346.325L174.385 347.124V337.517L203.552 336.822V346.325Z" fill="#D8DEE8"/>
<path d="M356.548 342.141L222.083 345.819V336.379L356.548 333.171V342.141Z" fill="#D8DEE8"/>
<path d="M203.552 362.561L174.385 363.531V353.926L203.552 353.056V362.561Z" fill="#D8DEE8"/>
<path d="M356.548 357.463L222.083 361.943V352.503L356.548 348.494V357.463Z" fill="#D8DEE8"/>
<path d="M203.552 378.795L174.385 379.94V370.334L203.552 369.292V378.795Z" fill="#D8DEE8"/>
<path d="M356.548 372.786L222.083 378.067V368.627L356.548 363.816V372.786Z" fill="#D8DEE8"/>
<path d="M250.688 392.898L222.53 394.172V384.734L250.688 383.558V392.898Z" fill="#D8DEE8"/>
<path d="M377.082 387.181L268.586 392.088V382.811L377.082 378.282V387.181Z" fill="#D8DEE8"/>
<path d="M155.191 413.741L124.976 415.288V405.51L155.191 404.067V413.741Z" fill="#D8DEE8"/>
<path d="M313.516 405.635L174.385 412.759V403.152L313.516 396.514V405.635Z" fill="#D8DEE8"/>
<path d="M203.552 427.501L174.385 429.168V419.561L203.552 417.995V427.501Z" fill="#D8DEE8"/>
<path d="M356.548 418.754L222.083 426.441V417.001L356.548 409.783V418.754Z" fill="#D8DEE8"/>
<path d="M203.552 443.735L174.385 445.575V435.97L203.552 434.231V443.735Z" fill="#D8DEE8"/>
<path d="M356.548 434.077L222.083 442.565V433.126L356.548 425.105V434.077Z" fill="#D8DEE8"/>
<path d="M155.191 463.312L124.976 465.4V455.62L155.191 453.638V463.312Z" fill="#D8DEE8"/>
<path d="M313.516 452.373L174.385 461.984V452.38L313.516 443.252V452.373Z" fill="#D8DEE8"/>
<path d="M427.288 154.798L184.182 146.809C176.03 146.541 169.394 152.971 169.394 161.173V398.116C169.394 406.318 176.03 412.683 184.182 412.336L427.288 401.955C434.319 401.655 439.997 395.273 439.997 387.701V168.927C439.997 161.353 434.319 155.028 427.288 154.798Z" fill="url(#paint9_linear_47257_108841)"/>
<path opacity="0.74" d="M184.182 407.613C178.636 407.843 174.129 403.509 174.129 397.932V161.308C174.129 155.733 178.638 151.355 184.182 151.53L427.288 159.193C432.078 159.344 435.95 163.65 435.95 168.812V387.855C435.95 393.017 432.078 397.361 427.288 397.558L184.182 407.613Z" fill="white"/>
<path d="M427.288 154.798L184.182 146.809C176.03 146.541 169.394 152.971 169.394 161.173V171.827L439.999 178.763V168.927C439.997 161.353 434.319 155.028 427.288 154.798Z" fill="url(#paint10_linear_47257_108841)"/>
<path d="M195.688 160.498C195.688 163.163 193.543 165.263 190.892 165.189C188.238 165.115 186.085 162.89 186.085 160.218C186.085 157.547 188.24 155.447 190.892 155.527C193.542 155.61 195.688 157.835 195.688 160.498Z" fill="white"/>
<path d="M212.425 160.986C212.425 163.637 210.301 165.728 207.676 165.656C205.047 165.584 202.913 163.369 202.913 160.709C202.913 158.05 205.047 155.96 207.676 156.039C210.299 156.12 212.425 158.333 212.425 160.986Z" fill="white"/>
<path d="M229.002 161.467C229.002 164.106 226.897 166.186 224.298 166.114C221.695 166.042 219.581 163.839 219.581 161.192C219.581 158.546 221.695 156.465 224.298 156.544C226.897 156.625 229.002 158.828 229.002 161.467Z" fill="white"/>
<path d="M315.039 201.474L186.631 199.165V206.716L315.039 208.747V201.474Z" fill="white"/>
<path d="M411.578 203.208V210.275L425.162 210.49V203.452L411.578 203.208Z" fill="white"/>
<path d="M213.778 225.184L186.631 224.893V217.109L213.778 217.457V225.184Z" fill="white"/>
<path d="M358.805 226.727L231.109 225.367V217.68L358.805 219.324V226.727Z" fill="white"/>
<path d="M257.575 238.679L231.109 238.499V230.812L257.575 231.052V238.679Z" fill="white"/>
<path d="M399.052 239.651L274.473 238.796V231.205L399.052 232.337V239.651Z" fill="white"/>
<path d="M257.575 251.711L231.109 251.629V243.942L257.575 244.082V251.711Z" fill="white"/>
<path d="M399.052 252.145L274.473 251.762V244.172L399.052 244.831V252.145Z" fill="white"/>
<path d="M213.778 264.772L186.631 264.791V257.006L213.778 257.046V264.772Z" fill="white"/>
<path d="M358.805 264.667L231.109 264.76V257.073L358.805 257.264V264.667Z" fill="white"/>
<path d="M257.575 277.771L231.109 277.89V270.203L257.575 270.143V277.771Z" fill="white"/>
<path d="M399.052 277.134L274.473 277.694V270.103L399.052 269.82V277.134Z" fill="white"/>
<path d="M257.575 290.801L231.109 291.019V283.333L257.575 283.173V290.801Z" fill="white"/>
<path d="M399.052 289.629L274.473 290.661V283.07L399.052 282.314V289.629Z" fill="white"/>
<path d="M257.575 303.832L231.109 304.151V296.464L257.575 296.203V303.832Z" fill="white"/>
<path d="M399.052 302.123L274.473 303.627V296.036L399.052 294.809V302.123Z" fill="white"/>
<path d="M300.687 316.178L274.882 316.587V308.996L300.687 308.644V316.178Z" fill="white"/>
<path d="M418.384 314.31L317.164 315.916V308.42L418.384 307.039V314.31Z" fill="white"/>
<path d="M213.778 330.752L186.631 331.286V323.5L213.778 323.028V330.752Z" fill="white"/>
<path d="M358.805 327.902L231.109 330.412V322.725L358.805 320.498V327.902Z" fill="white"/>
<path d="M257.575 342.922L231.109 343.542V335.855L257.575 335.294V342.922Z" fill="white"/>
<path d="M399.052 339.607L274.473 342.525V334.935L399.052 332.292V339.607Z" fill="white"/>
<path d="M257.575 355.952L231.109 356.673V348.987L257.575 348.324V355.952Z" fill="white"/>
<path d="M399.052 352.101L274.473 355.492V347.901L399.052 344.787V352.101Z" fill="white"/>
<path d="M213.778 370.341L186.631 371.182V363.397L213.778 362.616V370.341Z" fill="white"/>
<path d="M358.805 365.844L231.109 369.803V362.116L358.805 358.44V365.844Z" fill="white"/>
<path d="M257.575 382.013L231.109 382.935V375.248L257.575 374.384V382.013Z" fill="white"/>
<path d="M399.052 377.09L274.473 381.425V373.835L399.052 369.776V377.09Z" fill="white"/>
<g opacity="0.5">
<path d="M332.791 245.885C304.397 204.568 255.248 217.715 224.159 172.064C218.551 163.831 214.746 155.454 212.138 147.727L184.182 146.809C176.03 146.541 169.394 152.971 169.394 161.173V398.116C169.394 406.318 176.03 412.683 184.182 412.336L418.385 402.335C413.02 394.596 366.291 365.937 354.22 321.93C343.178 281.686 349.923 270.812 332.791 245.885Z" fill="white"/>
</g>
<path d="M241.732 334.421C246.663 329.155 233.011 309.374 225.704 300.707C219.32 293.135 212.758 285.35 204.702 286.336C197.628 287.201 190.745 294.661 190.331 301.811C189.222 321.046 234.722 341.906 241.732 334.421Z" fill="url(#paint11_linear_47257_108841)"/>
<path d="M182.519 537.695C181.59 538.449 181.42 540.334 181.308 541.565C181.258 542.115 181.233 542.391 181.294 542.585C181.742 544.003 184.493 544.153 188.804 544.592C195.617 545.288 197.645 545.825 198.179 544.81C198.679 543.861 197.47 542.303 197.333 542.133C196.601 541.211 195.701 540.877 193.966 540.305C190.751 539.247 188.579 538.667 187.922 538.492C183.815 537.396 183.128 537.201 182.519 537.695Z" fill="url(#paint12_linear_47257_108841)"/>
<path d="M186.571 531.471L187.252 539.235C187.058 539.609 184.751 540.734 182.919 539.771L181.167 532.139L186.571 531.471Z" fill="#D8DEE8"/>
<path d="M236.554 536.697C235.441 537.927 235.187 540.188 236.155 541.304C237.107 542.4 238.537 541.579 242.592 541.699C246.936 541.83 248.071 542.855 251.023 542.041C252.216 541.711 254.321 540.911 254.282 540.059C254.254 539.46 253.181 539.151 249.599 537.951C244.515 536.248 244.538 536.155 243.458 535.976C240.747 535.526 238.023 535.075 236.554 536.697Z" fill="url(#paint13_linear_47257_108841)"/>
<path d="M239.337 529.611L241.516 536.859C241.351 537.247 239.136 538.545 237.235 537.722L233.999 530.688L239.337 529.611Z" fill="#D8DEE8"/>
<path d="M219.976 370.866C220.289 395.225 221.951 422.614 225.939 452.371C229.882 481.781 235.405 508.355 241.432 531.722C238.652 532.47 235.872 533.217 233.092 533.966C226.039 527.39 217.142 517.036 212.847 502.406C210.183 493.325 211.07 488.66 209.381 477.491C206.69 459.708 201.239 450.39 195.604 436.05C190.54 423.164 184.557 404.251 181.348 378.972C194.223 376.271 207.101 373.569 219.976 370.866Z" fill="url(#paint14_linear_47257_108841)"/>
<path d="M194.881 368.541C193.179 399.523 191.78 431.081 190.719 463.197C189.922 487.296 189.338 511.092 188.95 534.573C186.111 534.924 183.271 535.274 180.431 535.626C177.687 530.516 174.042 522.706 171.545 512.696C168.513 500.536 169.215 493.316 167.885 480.715C166.393 466.581 164.226 463.502 160.387 445.672C152.593 409.486 148.698 391.394 157.391 380.14C160.212 376.484 169.059 367.319 194.881 368.541Z" fill="url(#paint15_linear_47257_108841)"/>
<path d="M153.493 290.678C160.143 288.808 169.89 286.621 181.827 285.946C198.852 284.984 207.365 284.502 213.397 288.557C227.328 297.922 216.542 319.534 222.246 373.109C223.06 380.759 223.244 388.465 223.833 396.137C224.81 408.839 225.031 409.527 224.148 410.815C218.606 418.887 197.928 406.712 167.622 411.524C150.665 414.216 142.975 420.42 138.329 415.945C132.912 410.728 137.558 396.693 141.558 384.612C146.149 370.744 148.988 370.566 151.594 360.123C154.319 349.206 152.671 343.587 152.246 326.372C152.044 318.134 152.087 305.877 153.493 290.678Z" fill="url(#paint16_linear_47257_108841)"/>
<g opacity="0.3">
<path d="M194.706 391.257C186.785 390.637 181.646 395.115 174.808 391.626C165.431 386.841 162.42 371.95 163.017 361.411C163.925 345.398 173.068 341.178 171.492 330.828C170.641 325.231 166.643 317.8 152.295 310.207C152.104 316.598 152.14 322.044 152.247 326.371C152.671 343.585 154.319 349.205 151.594 360.121C148.988 370.566 146.151 370.744 141.558 384.611C137.558 396.691 132.91 410.726 138.329 415.944C142.975 420.418 150.665 414.215 167.622 411.523C193.736 407.376 212.689 415.831 220.982 413.089C210.962 396.53 201.872 391.819 194.706 391.257Z" fill="url(#paint17_linear_47257_108841)"/>
</g>
<path d="M164.298 291.777C158.64 287.129 147.265 292.39 144.225 293.796C127.268 301.639 112.043 322.775 115.816 345.113C116.38 348.463 119.004 364.132 132.273 371.725C144.245 378.575 160.411 376.814 173.362 367.111C175.132 365.54 176.902 363.971 178.673 362.4C180.414 360.518 182.156 358.634 183.897 356.752C181.16 354.476 176.509 351.191 169.976 349.083C161.364 346.303 155.095 351.291 151.098 347.5C148.34 344.883 148.333 340.263 149.015 337.462C150.387 331.817 155.363 330.23 159.516 326.225C169.274 316.81 171.071 297.343 164.298 291.777Z" fill="url(#paint18_linear_47257_108841)"/>
<path d="M245.597 364.697L169.77 363.564L189.933 373.296L245.791 369.64L245.597 364.697Z" fill="url(#paint19_linear_47257_108841)"/>
<path d="M167.093 365.58C167.093 367 167.981 368.267 169.315 368.751L193.545 378.249L193.655 371.665L169.77 363.564C168.429 363.179 167.093 364.185 167.093 365.58Z" fill="url(#paint20_linear_47257_108841)"/>
<path d="M178.769 361.093C178.303 360.988 181.035 355.544 183.181 356.172C185.326 356.801 195.818 362.881 196.771 365.386C197.724 367.889 197.724 367.889 197.724 367.889C197.724 367.889 193.147 368.246 190.308 367.293C187.472 366.339 182.553 361.936 178.769 361.093Z" fill="url(#paint21_linear_47257_108841)"/>
<path d="M195.667 325.461L190.322 374.127C190.138 375.806 192.489 378.308 194.177 378.229L272.588 373.414C273.876 373.352 274.949 372.405 275.167 371.134L285.009 324.132C285.302 322.422 282.227 320.655 280.493 320.703L198.323 323.014C196.95 323.05 195.816 324.096 195.667 325.461Z" fill="url(#paint22_linear_47257_108841)"/>
<path d="M197.458 326.879L192.113 375.545C191.929 377.224 193.287 378.672 194.975 378.591L274.377 374.833C275.665 374.771 276.738 373.823 276.956 372.552L285.069 325.334C285.362 323.624 284.018 322.071 282.282 322.119L200.112 324.431C198.742 324.47 197.607 325.514 197.458 326.879Z" fill="url(#paint23_linear_47257_108841)"/>
<path opacity="0.3" d="M244.083 363.428C237.149 360.49 239.596 354.886 231.41 347.903C220.61 338.692 209.601 342.687 205.746 335.546C204.546 333.323 203.972 329.863 206.064 324.262L200.114 324.429C198.742 324.467 197.609 325.512 197.46 326.877L192.115 375.543C191.931 377.222 193.291 378.67 194.977 378.589L274.379 374.831C275.667 374.769 276.74 373.821 276.958 372.551L278.077 366.035C275.668 364.694 272.789 363.475 269.43 362.793C257.781 360.432 252.065 366.812 244.083 363.428Z" fill="url(#paint24_linear_47257_108841)"/>
<path d="M279.38 368.026C279.509 367.635 279.236 367.23 278.824 367.209C277.146 367.123 273.254 367.089 271.104 368.404C268.313 370.114 264.703 373.234 267.743 374.808L270.581 376.278C270.711 376.345 270.854 376.367 270.996 376.335C272.004 376.113 276.248 375.171 276.714 374.937C277.136 374.726 278.755 369.923 279.38 368.026Z" fill="url(#paint25_linear_47257_108841)"/>
<path d="M183.099 267.344C183.142 272.392 182.579 276.394 182.045 279.136C181.435 282.277 180.995 283.089 180.434 283.747C179.589 284.737 178.308 285.568 171.076 287.363C167.141 288.338 166.635 288.312 166.547 288.702C166.123 290.608 176.856 297.101 187.944 295.535C194.73 294.577 200.904 290.705 200.526 288.673C200.145 286.626 193.366 287.725 191.345 284.023C189.939 281.448 191.515 277.792 193.378 274.765C191.574 271.388 184.902 270.725 183.099 267.344Z" fill="url(#paint26_linear_47257_108841)"/>
<path d="M195.693 269.341C197.295 267.214 197.393 263.5 195.549 261.151C193.96 259.13 191.462 258.843 189.965 258.67C185.63 258.169 180.159 259.98 178.257 263.969C177.129 266.333 179.569 271.247 179.95 272.129C180.382 273.129 181.165 273.47 181.892 274.226C182.896 275.273 184.471 276.939 187.039 279.724C187.238 278.901 187.542 277.885 188.025 276.782C188.21 276.358 188.955 274.7 190.083 273.326C192.343 270.57 194.175 271.357 195.693 269.341Z" fill="url(#paint27_linear_47257_108841)"/>
<path d="M183.375 277.382C183.375 277.382 186.225 282.057 191.9 281.688C196.98 281.357 197.724 269.964 194.479 267.547C193.395 266.74 191.228 266.405 189.465 266.9C188.425 267.192 188.071 267.624 186.361 268.067C184.783 268.478 184.337 268.302 183.861 268.702C183.265 269.204 182.829 270.433 183.823 273.764C182.853 272.782 181.691 272.406 180.867 272.796C180.736 272.858 180.386 273.094 180.19 273.455C179.479 274.757 180.669 276.419 183.375 277.382Z" fill="url(#paint28_linear_47257_108841)"/>
<path d="M183.631 268.021C183.876 268.203 183.126 269.118 183.071 270.411C182.963 272.923 185.504 275.936 188.098 276.192C189.632 276.343 190.052 275.419 192.588 275.151C194.158 274.986 195.464 275.186 196.285 275.364C197.082 278.118 196.331 280.865 194.491 282.139C192.509 283.511 189.977 282.678 188.917 282.332C188.21 282.098 185.94 281.358 184.754 279.277C183.518 277.109 184.731 275.802 183.313 274.336C182.599 273.596 181.66 273.275 180.745 271.843C180.496 271.453 180.331 271.109 180.229 270.878C181.541 269.489 183.277 267.756 183.631 268.021Z" fill="url(#paint29_linear_47257_108841)"/>
<path d="M194.441 276.388C194.441 276.388 193.344 276.961 191.448 276.855C191.356 276.849 191.254 276.877 191.242 276.923C191.199 277.104 192.415 277.909 193.536 277.595C194.331 277.371 194.951 276.618 194.845 276.425C194.798 276.345 194.618 276.355 194.441 276.388Z" fill="url(#paint30_linear_47257_108841)"/>
<path d="M420.794 336.903C420.794 336.903 418.806 334.947 419.009 333.094C419.211 331.24 422.649 336.499 423.828 337.543C425.008 338.589 425.312 338.589 424.874 341.284C424.436 343.98 425.077 346.846 425.077 346.846C426.054 346.88 421.37 347.283 421.37 347.283C421.37 347.283 421.234 345.093 420.729 344.452C420.224 343.812 418.336 343.339 418.066 340.644C417.795 337.946 420.794 336.903 420.794 336.903Z" fill="url(#paint31_linear_47257_108841)"/>
<path d="M462.576 335.06C462.576 335.06 450.624 339.159 443.478 355.338C436.331 371.517 425.817 345.199 425.817 345.199L419.885 346.035C419.885 346.035 422.266 372.684 440.152 373.223C455.83 373.696 464.329 360.192 468.285 340.642L462.576 335.06Z" fill="url(#paint32_linear_47257_108841)"/>
<path d="M508.78 433.213C508.78 433.213 509.76 431.108 510.897 431.199C512.033 431.292 513.232 431.395 515.888 433.145C518.546 434.894 519.82 435.162 519.693 436.285C519.567 437.404 511.18 437.181 508.78 433.213Z" fill="url(#paint33_linear_47257_108841)"/>
<path d="M505.646 434.578C505.857 434.511 508.118 433.165 509.403 432.396C509.926 432.082 510.593 432.154 511.041 432.569C511.697 433.177 511.76 434.19 511.188 434.877C510.225 436.032 508.767 437.717 507.722 438.647L505.646 434.578Z" fill="url(#paint34_linear_47257_108841)"/>
<path d="M487.262 490.024C487.257 490.073 487.269 490.176 487.283 490.323C487.346 490.979 487.451 492.493 486.234 493.654C484.745 495.076 480.985 495.404 476.466 495.63C471.947 495.857 475.537 492.942 476.177 492.612C476.82 492.281 485.652 488.388 485.652 488.388L487.262 490.024Z" fill="url(#paint35_linear_47257_108841)"/>
<path d="M483.859 485.942L484.599 491.177C484.599 491.177 485.665 491.807 486.455 490.334L488.438 486.637L483.859 485.942Z" fill="url(#paint36_linear_47257_108841)"/>
<path d="M466.095 383.95C459.911 383.565 457.342 390.5 453.846 396.575C446.965 408.532 436.798 434.127 446.527 447.145C454.717 458.103 478.605 452.816 485.616 450.534C500.322 445.747 499.722 444.255 509.993 437.703C508.191 436.271 507.631 434.506 506.13 432.949C502.454 432.593 495.543 432.48 492.369 432.418C487.673 432.327 479.301 432.705 476.756 432.903C472.725 433.217 465.034 435.229 463.693 433.438C460.73 429.481 469.196 409.351 469.33 402.78C469.385 400.027 471.741 384.3 466.095 383.95Z" fill="url(#paint37_linear_47257_108841)"/>
<path opacity="0.3" d="M453.958 396.283C452.342 398.786 450.735 402.981 449.436 405.846C450.727 406.718 452.533 407.74 452.995 409.196C455.119 415.889 450.548 421.922 451.003 430.327C451.12 432.477 451.997 440.21 456.116 442.107C461.037 444.375 470.549 441.029 477.046 441.85C480.417 442.275 483.629 444.662 487.08 444.276C492.53 443.664 496.012 439.698 501.532 438.908C502.992 438.699 505.555 439.229 507.088 439.844C508.029 439.183 508.855 438.491 509.732 437.787C508.512 436.175 507.471 434.558 506.141 432.95C502.449 432.599 495.545 432.487 492.37 432.422C487.674 432.325 479.297 432.719 476.758 432.906C472.735 433.201 465.021 435.267 463.695 433.442C460.762 429.41 469.143 409.485 469.354 402.73C469.444 399.899 471.555 384.75 466.15 383.828C460.227 382.818 456.695 392.038 453.958 396.283Z" fill="url(#paint38_linear_47257_108841)"/>
<path d="M462.828 400.695C462.176 411.728 468.994 426.967 468.146 439.696C468.049 441.147 468.578 447.246 469.155 448.965C471.025 454.531 482.113 487.458 482.395 487.773C484.457 487.346 486.6 487.087 488.696 486.633C491.441 481.635 493.656 474.676 494.92 469.369C496.622 462.225 493.167 453.849 492.362 449.092C491.435 443.614 491.512 434.676 490.954 432.806C486.814 418.921 491.967 413.646 490.003 402.287C488.985 396.401 485.231 393.525 480.951 389.998C474.873 396.135 468.005 393.913 462.828 400.695Z" fill="url(#paint39_linear_47257_108841)"/>
<path d="M453.558 395.999C454.803 401.274 461.156 403.83 467.697 406.461C472.07 408.219 485.59 413.66 493.454 407.544C496.764 404.967 497.126 401.861 499.489 390.433C501.199 382.155 502.612 376.034 503.695 371.369C506.419 359.666 507.093 357.117 505.287 352.618C501.388 342.9 491.589 338.305 488.272 336.947C487.916 336.801 487.625 336.693 487.425 336.612C478.992 333.408 463.346 331.764 457.054 338.333C450.222 345.474 461.492 354.91 456.575 376.281C455.091 382.737 453.451 386.705 453.139 390.708C453.007 392.402 453.11 394.102 453.558 395.999Z" fill="url(#paint40_linear_47257_108841)"/>
<path d="M464.674 316.836C464.313 314.951 462.926 314.899 462.627 313.151C462.253 310.961 463.977 308.339 466.106 307.216C468.19 306.117 469.131 307.26 473.678 307.216C478.561 307.168 479.32 305.829 483.296 306.397C484.335 306.546 486.27 306.84 488.413 308.035C490.121 308.986 493.507 310.875 493.938 314.379C494.41 318.211 490.992 321.07 490.664 321.338C491.957 325.785 491.405 327.672 490.459 328.501C490.459 328.501 489.455 329.382 484.319 329.32C484.319 329.32 482.87 331.121 482.025 331.724C481.066 332.407 479.199 332.744 475.176 330.833C475.106 329.969 474.962 328.738 474.644 327.286C474.048 324.559 473.75 323.194 472.994 322.937C471.088 322.286 468.544 328.948 465.968 328.457C464.311 328.142 463.022 324.942 463.238 322.361C463.458 319.781 465.084 318.979 464.674 316.836Z" fill="url(#paint41_linear_47257_108841)"/>
<path d="M471.488 332.248C471.864 334.107 470.695 335.704 468.968 335.773C466.95 335.852 464.595 336.022 463.604 336.398C461.846 337.064 469.273 337.467 477.031 338.975C482.414 340.02 486.826 340.379 489.47 340.498C490.2 340.53 490.411 339.708 489.755 339.382C487.394 338.202 483.676 336.458 480.599 335.52C476.967 334.413 473.858 326.041 473.858 326.041L470.716 328.424L471.488 332.248Z" fill="url(#paint42_linear_47257_108841)"/>
<path d="M478.482 329.889C478.482 329.889 474.371 334.557 468.097 333.026C462.479 331.654 463.892 318.764 467.998 316.699C469.368 316.01 471.859 316.064 473.732 316.963C474.84 317.496 475.149 318.048 476.974 318.881C478.658 319.65 479.192 319.542 479.646 320.085C480.214 320.763 480.46 322.224 478.691 325.754C479.968 324.848 481.344 324.655 482.189 325.253C482.324 325.349 482.668 325.682 482.815 326.123C483.356 327.718 481.699 329.343 478.482 329.889Z" fill="url(#paint43_linear_47257_108841)"/>
<path opacity="0.3" d="M453.558 395.999C454.803 401.274 461.156 403.83 467.697 406.461C472.07 408.219 485.59 413.66 493.454 407.544C496.764 404.967 497.126 401.861 499.489 390.433C501.199 382.155 502.612 376.034 503.695 371.369L494.582 353.19C494.673 353.664 497.806 369.735 490.516 372.092C483.117 374.48 477.719 374.681 476.646 383.745C475.606 392.514 477.963 405.915 453.139 390.707C453.007 392.402 453.11 394.102 453.558 395.999Z" fill="url(#paint44_linear_47257_108841)"/>
<path d="M488.433 403.811C488.009 404.737 487.211 406.097 485.741 407.134C482.59 409.356 477.824 409.046 477.242 407.58C476.715 406.253 479.598 403.938 480.88 403.068C483.677 401.169 486.601 400.884 488.174 400.856L488.433 403.811Z" fill="url(#paint45_linear_47257_108841)"/>
<path d="M498.751 343.468C498.751 343.468 539.469 383.829 516.64 396.413C493.811 408.997 487.518 405.941 487.518 405.941L486.44 400.857C486.44 400.857 513.165 389.222 505.644 380.953C498.124 372.684 475.288 359.551 498.751 343.468Z" fill="url(#paint46_linear_47257_108841)"/>
<path d="M370.562 473.088L330.653 463.106L328.656 472.802L365.192 489.666L394.121 482.52L404.301 463.106L370.562 473.088Z" fill="url(#paint47_linear_47257_108841)"/>
<path d="M324.879 464.332C324.727 466.507 330.155 468.604 331.515 469.124C339.578 472.22 343.618 469.44 352.522 470.978C360.176 472.292 358.895 474.642 366.531 475.949C371.426 476.79 376.551 476.019 386.802 474.483C390.639 473.904 394.121 473.253 396.822 472.668C396.829 472.661 396.836 472.661 396.841 472.661C400.297 471.892 402.459 471.201 402.412 470.827C402.405 470.774 402.361 470.767 402.347 470.695C402.131 469.728 408.307 468.461 408.339 466.911C408.339 466.76 408.286 466.615 408.181 466.476C407.393 465.51 403.844 464.794 398.522 462.816C393.364 460.91 390.788 459.957 388.455 458.078C384.039 454.517 382.547 449.595 381.561 446.362C380.464 442.722 378.361 436.518 381.115 429.724C381.173 429.58 381.233 429.429 381.299 429.285C384.432 422.084 390.761 418.291 393.055 417.043C390.256 414.532 382.818 408.559 370.864 406.451C367.185 405.807 360.108 404.466 351.756 406.858C340.251 410.156 331.072 419.067 332.411 422.319C333.673 425.387 343.923 422.489 347.708 428.955C347.912 429.297 348.056 429.534 348.24 430.045C351.368 438.738 348.247 446.722 347.503 448.266C346.925 449.463 345.263 452.632 341.832 455.668C338.304 458.789 334.538 460.671 331.456 461.263H331.449C327.724 461.859 324.983 462.86 324.879 464.332Z" fill="url(#paint48_linear_47257_108841)"/>
<path opacity="0.5" d="M324.879 464.332C324.727 466.507 330.155 468.603 331.515 469.124C339.578 472.219 343.618 469.44 352.522 470.978C360.176 472.292 358.895 474.642 366.531 475.949C371.426 476.79 376.551 476.019 386.802 474.482C390.639 473.904 394.121 473.253 396.822 472.668L396.841 472.654L408.183 466.478C407.395 465.511 403.846 464.795 398.523 462.817C393.366 460.911 390.79 459.958 388.457 458.08C384.041 454.519 382.549 449.596 381.563 446.363C380.466 442.723 378.363 436.52 381.117 429.726C379.546 429.837 374.795 430.804 375.348 438.63C376.005 448 382.622 454.243 370.111 455.965C357.606 457.687 375.038 468.269 366.608 468.761C358.178 469.254 354.175 460.674 331.46 461.268H331.453C327.724 461.859 324.983 462.86 324.879 464.332Z" fill="url(#paint49_linear_47257_108841)"/>
<path d="M346.147 399.232C344.914 398.748 341.386 396.137 341.078 392.613C340.869 390.211 342.388 389.269 341.971 386.772C341.497 383.936 339.315 383.817 337.969 380.869C336.4 377.432 337.071 372.562 339.53 369.838C341.513 367.642 343.043 368.625 346.473 365.827C349.504 363.353 349.071 361.962 351.071 360.801C354.967 358.542 358.404 362.769 364.46 362.75C372.873 362.722 374.554 354.538 380.974 355.453C386.875 356.294 392.595 364.23 392.287 370.538C392.164 373.066 391.183 374.204 391.868 376.597C392.921 380.275 396.298 380.129 398.127 383.965C399.511 386.867 399.615 391.219 397.49 393.322C394.998 395.785 391.37 393.256 388.876 395.664C386.189 398.257 389.071 402.471 386.434 405.247C383.943 407.87 378.725 407.069 375.784 406.25C372.24 405.262 368.995 403.437 365.583 402.064C359.249 399.507 352.376 401.679 346.147 399.232Z" fill="url(#paint50_linear_47257_108841)"/>
<path d="M371.574 436.237C369.645 439.949 376.393 450.704 385.79 451.623C390.883 452.121 395.908 449.646 398.92 445.909C403.568 440.139 402.129 432.957 401.626 430.442C398.657 415.605 381.213 409.43 379.614 408.89C375.37 415.468 375.439 419.616 376.335 422.212C377.073 424.354 379.006 426.641 382.875 431.216C386.319 435.291 388.026 436.742 387.514 437.983C386.906 439.456 383.61 439.568 381.52 439.144C377.65 438.357 375.529 435.243 374.977 434.37C373.914 434.537 372.236 434.961 371.574 436.237Z" fill="url(#paint51_linear_47257_108841)"/>
<path d="M355.537 438.222C357.465 441.934 350.717 452.689 341.32 453.607C336.228 454.105 331.202 451.631 328.191 447.893C323.543 442.124 324.982 434.942 325.485 432.427C328.453 417.59 344.718 409.43 346.317 408.889C350.561 415.466 351.672 421.6 350.776 424.196C350.038 426.337 347.12 426.244 343.254 430.818C339.81 434.892 339.085 438.725 339.597 439.966C340.204 441.439 343.501 441.551 345.591 441.127C349.461 440.34 351.581 437.226 352.134 436.353C353.197 436.522 354.874 436.946 355.537 438.222Z" fill="url(#paint52_linear_47257_108841)"/>
<path d="M365.968 397.253C365.968 397.253 366.73 403.345 368.978 404.74C371.225 406.135 374.86 407.958 375.26 408.453C375.66 408.947 361.332 410.487 354.232 406.904C356.572 406.416 357.208 406.236 357.208 406.236C357.843 406.056 359.028 405.723 360.214 405.046C361.023 404.586 362.326 403.686 363.521 401.988L363.495 398.616L365.968 397.253Z" fill="url(#paint53_linear_47257_108841)"/>
<path d="M367.743 399.454C367.743 399.454 364.343 404.95 358.227 403.231C352.752 401.693 354.888 387.687 358.997 385.797C360.367 385.167 362.973 385.201 364.786 386.151C366.062 386.818 369.618 390.61 368.097 395.275C369.414 394.782 370.626 395.046 370.973 395.692C371.414 396.509 370.361 397.747 370.123 398.027C369.295 398.999 368.234 399.334 367.743 399.454Z" fill="url(#paint54_linear_47257_108841)"/>
<path d="M363.77 486.51C355.837 482.257 349.979 477.927 346.003 474.652C338.178 468.21 334.59 463.351 326.669 461.432C325.253 461.088 317.188 459.133 314.585 462.714C311.704 466.679 317.307 474.972 317.987 475.98C328.107 490.959 353.877 490.26 361.959 489.774C362.563 488.685 363.166 487.597 363.77 486.51Z" fill="url(#paint55_linear_47257_108841)"/>
<path opacity="0.3" d="M314.585 462.714C315.346 461.667 316.579 461.102 317.969 460.824C317.506 462.427 317.465 463.931 318.043 465.245C319.625 468.837 324.307 467.731 327.597 471.946C330.826 476.086 328.591 480.076 331.446 481.785C334.719 483.742 338.776 479.17 342.282 481.357C344.665 482.844 343.923 485.665 346.701 487.203C348.621 488.266 350.503 487.763 352.69 487.488C355.197 487.174 358.631 487.106 362.941 488.007C362.614 488.596 362.286 489.185 361.96 489.774C353.877 490.26 328.108 490.958 317.988 475.98C317.307 474.972 311.704 466.679 314.585 462.714Z" fill="url(#paint56_linear_47257_108841)"/>
<path d="M358.439 491.903C358.439 491.903 356.986 490.861 354.876 491.572C352.768 492.282 349.418 492.854 349.423 493.886C349.428 494.918 352.78 495.562 355.094 495.14C357.311 494.733 359.052 492.808 358.439 491.903Z" fill="url(#paint57_linear_47257_108841)"/>
<path d="M360.57 490.141L356.687 491.39C356.687 491.39 356.057 492.44 356.907 493.107C357.759 493.773 360.715 492.363 360.715 492.363L360.57 490.141Z" fill="url(#paint58_linear_47257_108841)"/>
<path d="M376.031 438.222C376.031 438.222 374.717 431.213 369.57 432.363C364.422 433.514 361.739 436.305 364.75 437.073C367.762 437.84 371.376 438.058 372.089 439.372C372.8 440.687 376.644 441.431 376.031 438.222Z" fill="url(#paint59_linear_47257_108841)"/>
<path d="M328.625 464.742L389.561 466.485L376.287 472.307L328.424 468.681L328.625 464.742Z" fill="url(#paint60_linear_47257_108841)"/>
<path d="M391.233 467.791C391.247 468.662 390.714 469.422 389.894 469.699L373.749 475.576L373.618 471.182L389.561 466.485C390.386 466.284 391.219 466.936 391.233 467.791Z" fill="url(#paint61_linear_47257_108841)"/>
<path d="M372.891 440.694L376.424 472.863C376.546 473.974 374.992 475.628 373.876 475.574L322.046 472.393C321.194 472.352 320.485 471.725 320.341 470.885L313.835 439.815C313.641 438.685 315.674 437.516 316.821 437.549L371.136 439.075C372.042 439.101 372.793 439.791 372.891 440.694Z" fill="url(#paint62_linear_47257_108841)"/>
<path d="M371.706 441.632L375.239 473.801C375.361 474.91 374.463 475.866 373.347 475.815L320.861 473.331C320.009 473.289 319.3 472.663 319.156 471.823L313.794 440.612C313.6 439.48 314.489 438.455 315.636 438.488L369.951 440.014C370.858 440.038 371.608 440.73 371.706 441.632Z" fill="url(#paint63_linear_47257_108841)"/>
<path opacity="0.3" d="M340.886 465.793C345.469 463.851 343.851 460.146 349.263 455.531C356.402 449.442 363.679 452.083 366.227 447.363C367.02 445.893 367.4 443.606 366.017 439.904L369.951 440.014C370.858 440.04 371.608 440.73 371.706 441.632L375.239 473.801C375.361 474.91 374.461 475.866 373.347 475.815L320.861 473.33C320.009 473.289 319.3 472.663 319.156 471.823L318.416 467.517C320.007 466.631 321.912 465.826 324.132 465.374C331.832 463.812 335.61 468.028 340.886 465.793Z" fill="url(#paint64_linear_47257_108841)"/>
<path d="M408.698 463.106C411.217 469.39 398.889 479.408 396.011 481.714C390.148 486.415 378.208 491.716 359.481 493.87C358.923 492.459 358.365 491.048 357.809 489.636C360.054 488.287 363.358 486.168 367.085 483.223C373.449 478.2 375.614 475.123 384.205 467.039C393.712 458.095 396.712 456.567 400.142 456.686C403.073 456.791 407.527 460.185 408.698 463.106Z" fill="url(#paint65_linear_47257_108841)"/>
<path d="M438.287 274.26C438.349 251.63 415.621 234.318 389.939 235.54C375.968 236.205 364.189 242.278 357.015 250.943C357.014 250.94 357.014 250.938 357.012 250.937C356.967 250.99 356.926 251.045 356.883 251.1C356.76 251.249 356.641 251.402 356.521 251.555C356.301 251.831 356.087 252.109 355.875 252.391C355.752 252.557 355.63 252.724 355.508 252.892C355.305 253.174 355.11 253.457 354.917 253.742C354.807 253.905 354.696 254.068 354.588 254.233C354.373 254.563 354.167 254.898 353.964 255.233C353.891 255.354 353.813 255.473 353.743 255.595C353.477 256.05 353.221 256.51 352.975 256.975C352.91 257.099 352.852 257.224 352.788 257.35C352.61 257.698 352.436 258.048 352.271 258.404C352.191 258.577 352.114 258.752 352.036 258.927C351.897 259.242 351.762 259.556 351.633 259.874C351.557 260.057 351.483 260.243 351.411 260.428C351.286 260.754 351.166 261.082 351.051 261.412C350.991 261.584 350.929 261.755 350.87 261.929C350.733 262.343 350.606 262.761 350.486 263.182C350.46 263.27 350.431 263.356 350.407 263.445C350.266 263.951 350.141 264.465 350.026 264.98C349.991 265.131 349.964 265.285 349.933 265.438C349.856 265.807 349.784 266.178 349.72 266.553C349.687 266.743 349.66 266.934 349.631 267.126C349.578 267.471 349.531 267.818 349.49 268.168C349.466 268.364 349.444 268.56 349.425 268.757C349.389 269.125 349.359 269.495 349.337 269.866C349.327 270.04 349.311 270.211 349.303 270.385C349.277 270.927 349.262 271.472 349.263 272.021C349.306 285.093 357.398 297.062 369.785 304.072C370.942 304.726 372.139 305.341 373.371 305.907C373.99 306.193 374.618 306.465 375.255 306.728C379.757 308.581 384.71 309.845 389.98 310.36C390.711 310.432 391.439 310.485 392.166 310.526C392.411 310.54 392.653 310.545 392.899 310.555C393.381 310.576 393.864 310.597 394.343 310.603C394.636 310.609 394.926 310.603 395.218 310.603C395.648 310.603 396.079 310.602 396.506 310.591C396.819 310.583 397.129 310.567 397.442 310.554C397.847 310.536 398.252 310.518 398.656 310.49C398.977 310.468 399.298 310.442 399.617 310.415C400.009 310.382 400.398 310.346 400.786 310.303C401.111 310.267 401.435 310.229 401.758 310.188C402.139 310.14 402.519 310.087 402.898 310.03C403.223 309.98 403.547 309.93 403.87 309.875C404.246 309.812 404.619 309.742 404.99 309.669C405.311 309.608 405.63 309.544 405.948 309.477C406.064 309.451 406.185 309.432 406.303 309.405C406.3 309.402 406.298 309.4 406.295 309.396C424.5 305.349 438.239 291.66 438.287 274.26Z" fill="url(#paint66_linear_47257_108841)"/>
<path d="M433.128 273.889C433.074 296.258 410.76 312.18 385.619 309.738C362.73 307.515 345.572 290.594 345.505 271.726C345.438 252.81 362.561 236.614 385.557 235.508C410.829 234.292 433.181 251.453 433.128 273.889Z" fill="url(#paint67_linear_47257_108841)"/>
<path d="M370.559 265.098C369.014 265.083 367.824 265.711 366.986 266.98C366.152 268.244 365.738 270.014 365.743 272.291C365.753 277.026 367.357 279.456 370.585 279.583C371.952 279.636 373.617 279.323 375.586 278.638L375.592 282.488C373.972 283.152 372.175 283.437 370.205 283.345C367.401 283.212 365.276 282.179 363.813 280.247C362.357 278.328 361.629 275.634 361.62 272.157C361.615 269.966 361.966 268.051 362.673 266.412C363.382 264.767 364.409 263.503 365.755 262.626C367.108 261.743 368.706 261.302 370.552 261.305C372.448 261.311 374.367 261.824 376.311 262.851L374.96 266.578C374.22 266.183 373.48 265.84 372.736 265.546C371.994 265.256 371.27 265.107 370.559 265.098Z" fill="white"/>
<path d="M393.503 277.907C393.503 279.931 392.815 281.499 391.441 282.603C390.076 283.7 388.187 284.191 385.789 284.078C383.598 283.975 381.675 283.446 380.014 282.493L380.009 278.19C381.374 278.898 382.535 279.408 383.49 279.713C384.448 280.021 385.325 280.192 386.125 280.223C387.088 280.261 387.828 280.093 388.345 279.718C388.864 279.342 389.123 278.765 389.121 277.984C389.121 277.548 389.006 277.157 388.778 276.81C388.55 276.463 388.215 276.126 387.772 275.799C387.33 275.472 386.436 274.945 385.09 274.222C383.835 273.554 382.897 272.924 382.274 272.327C381.652 271.733 381.156 271.046 380.787 270.268C380.418 269.492 380.232 268.591 380.231 267.562C380.229 265.625 380.833 264.108 382.049 263.005C383.272 261.898 384.971 261.343 387.159 261.348C388.24 261.352 389.276 261.491 390.267 261.769C391.261 262.047 392.305 262.44 393.398 262.947L391.949 266.632C390.823 266.129 389.896 265.777 389.166 265.576C388.436 265.375 387.722 265.272 387.021 265.265C386.19 265.256 385.555 265.457 385.114 265.866C384.673 266.274 384.453 266.81 384.455 267.475C384.455 267.887 384.544 268.249 384.722 268.558C384.901 268.869 385.184 269.171 385.576 269.465C385.965 269.76 386.894 270.296 388.364 271.073C390.32 272.112 391.671 273.146 392.402 274.171C393.134 275.198 393.503 276.444 393.503 277.907Z" fill="white"/>
<path d="M412.031 278.542C412.029 280.639 411.288 282.261 409.814 283.401C408.348 284.536 406.324 285.039 403.752 284.919C401.405 284.809 399.346 284.258 397.569 283.269V278.817C399.03 279.552 400.273 280.079 401.295 280.398C402.32 280.719 403.261 280.896 404.117 280.929C405.149 280.97 405.943 280.797 406.497 280.408C407.053 280.02 407.332 279.423 407.332 278.614C407.332 278.163 407.21 277.757 406.964 277.397C406.72 277.038 406.361 276.688 405.888 276.348C405.415 276.01 404.457 275.464 403.015 274.713C401.671 274.021 400.668 273.367 400.002 272.749C399.337 272.133 398.807 271.422 398.412 270.618C398.017 269.815 397.82 268.882 397.82 267.818C397.82 265.814 398.469 264.243 399.773 263.103C401.084 261.956 402.905 261.383 405.251 261.389C406.41 261.393 407.52 261.537 408.582 261.826C409.648 262.114 410.766 262.521 411.938 263.046L410.379 266.861C409.172 266.34 408.178 265.976 407.395 265.766C406.614 265.558 405.848 265.45 405.096 265.443C404.205 265.435 403.523 265.642 403.051 266.065C402.579 266.487 402.342 267.042 402.342 267.729C402.342 268.156 402.436 268.53 402.627 268.85C402.818 269.171 403.122 269.483 403.541 269.789C403.958 270.095 404.952 270.649 406.526 271.458C408.623 272.534 410.068 273.606 410.853 274.669C411.638 275.737 412.031 277.028 412.031 278.542Z" fill="white"/>
<g opacity="0.2">
<path d="M396.374 301.172C390.965 289.704 396.432 279.571 389.135 272.169C381.922 264.851 372.861 271.293 363.446 265.473C359.898 263.28 356.008 259.164 353.139 250.792C348.295 256.692 345.479 263.915 345.507 271.724C345.574 290.592 362.73 307.513 385.62 309.736C391.17 310.276 396.592 309.915 401.686 308.768C399.16 306.151 397.502 303.564 396.374 301.172Z" fill="url(#paint68_linear_47257_108841)"/>
</g>
<path d="M526.476 215.704C526.476 192.693 503.443 173.637 476.092 173.158C460.555 172.886 447.061 178.703 438.644 187.831C438.642 187.827 438.642 187.826 438.641 187.822C438.589 187.879 438.539 187.939 438.488 187.996C438.342 188.155 438.203 188.318 438.06 188.48C437.801 188.775 437.545 189.072 437.295 189.373C437.147 189.551 437.003 189.73 436.859 189.91C436.618 190.211 436.385 190.516 436.155 190.824C436.024 191 435.89 191.174 435.763 191.352C435.507 191.708 435.26 192.068 435.02 192.432C434.932 192.565 434.839 192.693 434.754 192.826C434.434 193.318 434.129 193.818 433.835 194.326C433.758 194.46 433.686 194.597 433.61 194.733C433.397 195.114 433.188 195.495 432.99 195.883C432.892 196.074 432.801 196.266 432.707 196.457C432.539 196.8 432.377 197.145 432.221 197.494C432.13 197.697 432.041 197.899 431.955 198.104C431.804 198.462 431.66 198.823 431.52 199.187C431.448 199.378 431.373 199.566 431.302 199.757C431.136 200.215 430.983 200.677 430.837 201.143C430.806 201.24 430.772 201.335 430.743 201.433C430.573 201.994 430.418 202.563 430.279 203.136C430.238 203.304 430.204 203.476 430.166 203.646C430.071 204.056 429.984 204.47 429.905 204.886C429.865 205.097 429.829 205.311 429.795 205.524C429.73 205.911 429.673 206.297 429.621 206.687C429.592 206.905 429.565 207.125 429.541 207.344C429.496 207.756 429.46 208.17 429.431 208.586C429.417 208.78 429.398 208.972 429.388 209.166C429.355 209.774 429.335 210.385 429.335 211.002C429.335 225.683 438.946 239.129 453.378 246.816C454.707 247.523 456.077 248.183 457.485 248.791C458.19 249.094 458.905 249.386 459.629 249.664C464.718 251.618 470.262 252.91 476.095 253.371C476.899 253.435 477.699 253.48 478.495 253.512C478.765 253.523 479.029 253.523 479.297 253.529C479.824 253.543 480.351 253.555 480.873 253.555C481.193 253.555 481.509 253.545 481.828 253.54C482.295 253.531 482.762 253.523 483.226 253.504C483.566 253.49 483.902 253.468 484.24 253.447C484.678 253.421 485.118 253.394 485.552 253.358C485.899 253.329 486.244 253.294 486.589 253.26C487.01 253.217 487.431 253.172 487.848 253.121C488.198 253.078 488.545 253.03 488.892 252.98C489.3 252.922 489.707 252.858 490.112 252.791C490.459 252.733 490.806 252.674 491.151 252.609C491.551 252.535 491.95 252.455 492.346 252.372C492.688 252.302 493.028 252.23 493.366 252.152C493.491 252.123 493.618 252.101 493.742 252.072C493.739 252.068 493.737 252.067 493.734 252.063C512.684 247.582 526.476 233.444 526.476 215.704Z" fill="url(#paint69_linear_47257_108841)"/>
<path d="M519.689 215.498C519.689 238.392 496.886 255.143 469.8 252.995C443.804 250.933 423.485 232.091 423.485 210.835C423.485 189.58 443.804 172.708 469.8 173.164C496.886 173.643 519.689 192.604 519.689 215.498Z" fill="url(#paint70_linear_47257_108841)"/>
<path d="M449.794 220.838L446.324 220.646V213.132L439.872 212.813V220.289L436.445 220.1V202.827L439.872 202.969V209.757L446.324 210.061V203.237L449.794 203.381V220.838Z" fill="white"/>
<path d="M461.562 221.491L458.017 221.295V206.828L453.505 206.628V203.54L466.133 204.065V207.185L461.562 206.984V221.491Z" fill="white"/>
<path d="M477.158 222.353L473.035 208.181L472.93 208.175C473.078 211.019 473.152 212.914 473.152 213.864V222.131L469.926 221.952V204.221L474.848 204.426L478.912 218.249L478.983 218.252L483.322 204.779L488.347 204.989V222.972L484.901 222.782V214.291C484.901 213.891 484.906 213.429 484.918 212.906C484.93 212.384 484.984 210.995 485.08 208.742L484.973 208.737L480.506 222.538L477.158 222.353Z" fill="white"/>
<path d="M493.993 223.285V205.224L497.741 205.38V220.321L504.971 220.704V223.893L493.993 223.285Z" fill="white"/>
<g opacity="0.3">
<path d="M481.569 243.671C475.695 231.41 481.634 220.66 473.703 212.591C465.745 204.496 455.548 211.182 444.751 204.491C440.626 201.934 436.072 197.209 432.707 187.762C426.905 194.082 423.485 202.056 423.485 210.837C423.485 232.091 443.804 250.933 469.8 252.997C475.906 253.481 481.802 253.002 487.278 251.697C484.572 248.95 482.786 246.21 481.569 243.671Z" fill="url(#paint71_linear_47257_108841)"/>
</g>
<path d="M423.974 143.777C423.974 122.601 404.442 106.07 381.177 106.825C367.927 107.256 356.401 113.23 349.203 122.046C349.201 122.043 349.201 122.041 349.2 122.04C349.155 122.095 349.114 122.151 349.069 122.206C348.946 122.361 348.825 122.517 348.703 122.673C348.482 122.958 348.262 123.243 348.049 123.533C347.924 123.705 347.799 123.877 347.677 124.05C347.471 124.34 347.272 124.632 347.074 124.928C346.962 125.096 346.847 125.264 346.739 125.434C346.519 125.774 346.31 126.119 346.102 126.468C346.027 126.593 345.948 126.717 345.876 126.844C345.603 127.314 345.34 127.791 345.089 128.272C345.022 128.399 344.962 128.532 344.897 128.659C344.715 129.021 344.536 129.383 344.366 129.752C344.282 129.933 344.205 130.115 344.124 130.297C343.98 130.623 343.841 130.949 343.707 131.279C343.63 131.471 343.553 131.662 343.479 131.856C343.348 132.194 343.226 132.536 343.106 132.877C343.044 133.056 342.979 133.234 342.919 133.415C342.776 133.846 342.644 134.282 342.521 134.718C342.495 134.809 342.464 134.9 342.44 134.991C342.294 135.52 342.164 136.052 342.043 136.588C342.007 136.746 341.978 136.905 341.945 137.065C341.865 137.45 341.789 137.836 341.722 138.224C341.688 138.421 341.659 138.62 341.628 138.82C341.573 139.18 341.523 139.541 341.478 139.903C341.454 140.107 341.43 140.31 341.41 140.514C341.37 140.897 341.341 141.282 341.315 141.668C341.303 141.848 341.288 142.027 341.279 142.207C341.25 142.772 341.233 143.339 341.233 143.909C341.233 157.497 349.462 169.485 361.801 175.901C362.936 176.492 364.105 177.035 365.308 177.529C365.911 177.776 366.521 178.011 367.139 178.233C371.481 179.794 376.21 180.717 381.18 180.863C381.865 180.884 382.547 180.887 383.225 180.877C383.453 180.874 383.68 180.862 383.908 180.855C384.357 180.841 384.806 180.829 385.251 180.803C385.524 180.788 385.792 180.762 386.063 180.743C386.462 180.712 386.858 180.683 387.253 180.642C387.542 180.613 387.828 180.575 388.117 180.541C388.489 180.496 388.864 180.45 389.233 180.395C389.528 180.352 389.822 180.304 390.115 180.254C390.474 180.194 390.831 180.132 391.187 180.065C391.484 180.008 391.779 179.948 392.074 179.885C392.423 179.811 392.768 179.734 393.113 179.653C393.409 179.583 393.704 179.512 393.996 179.437C394.336 179.349 394.674 179.256 395.01 179.16C395.301 179.078 395.591 178.995 395.878 178.908C395.984 178.875 396.092 178.848 396.199 178.815C396.197 178.813 396.193 178.81 396.192 178.808C412.285 173.769 423.974 160.102 423.974 143.777Z" fill="url(#paint72_linear_47257_108841)"/>
<path d="M420.777 143.782C420.777 164.902 401.344 181.458 378.196 180.781C355.91 180.13 338.443 163.635 338.443 143.918C338.443 124.2 355.91 107.648 378.196 106.922C401.344 106.17 420.777 122.66 420.777 143.782Z" fill="url(#paint73_linear_47257_108841)"/>
<path d="M367.752 154.012L351.226 145.602V142.892L367.752 133.324V137.934L356.318 144.041L367.752 149.422V154.012Z" fill="white"/>
<path d="M385.332 129.589L375.933 157.993L371.211 157.945L380.536 129.655L385.332 129.589Z" fill="white"/>
<path d="M388.826 149.484L400.903 143.973L388.826 137.793V133.101L406.439 142.753V145.59L388.826 154.156V149.484Z" fill="white"/>
<g opacity="0.3">
<path d="M388.263 171.59C383.239 160.531 388.318 150.312 381.536 143.219C374.723 136.093 365.985 142.753 356.724 137.053C353.181 134.872 349.268 130.7 346.375 122.096C341.386 128.221 338.443 135.772 338.443 143.918C338.443 163.635 355.91 180.13 378.196 180.781C383.421 180.934 388.462 180.206 393.141 178.736C390.83 176.327 389.303 173.881 388.263 171.59Z" fill="url(#paint74_linear_47257_108841)"/>
</g>
<path d="M179.433 121.349C179.433 121.349 190.137 100.612 208.486 108.654C226.836 116.696 225.136 112.474 237.879 114.076C250.621 115.676 266.392 124.519 256.127 126.299C245.863 128.08 165.502 130.118 165.502 130.118C165.502 130.118 166.692 122.436 179.433 121.349Z" fill="white"/>
<defs>
<linearGradient id="paint0_linear_47257_108841" x1="139.654" y1="265.254" x2="148.282" y2="113.648" gradientUnits="userSpaceOnUse">
<stop stop-color="#FFC444"/>
<stop offset="0.9964" stop-color="#F36F56"/>
</linearGradient>
<linearGradient id="paint1_linear_47257_108841" x1="139.553" y1="256.353" x2="148.312" y2="116.291" gradientUnits="userSpaceOnUse">
<stop stop-color="#FFC444"/>
<stop offset="0.9964" stop-color="#F36F56"/>
</linearGradient>
<linearGradient id="paint2_linear_47257_108841" x1="171.417" y1="86.7244" x2="117.179" y2="219.854" gradientUnits="userSpaceOnUse">
<stop stop-color="#FCB148"/>
<stop offset="0.0521" stop-color="#FDBA46"/>
<stop offset="0.1424" stop-color="#FFC244"/>
<stop offset="0.3183" stop-color="#FFC444"/>
<stop offset="0.4849" stop-color="#FDB946"/>
<stop offset="0.7754" stop-color="#F99C4D"/>
<stop offset="0.8658" stop-color="#F8924F"/>
<stop offset="1" stop-color="#F8924F"/>
</linearGradient>
<linearGradient id="paint3_linear_47257_108841" x1="108.715" y1="154.807" x2="164.579" y2="154.807" gradientUnits="userSpaceOnUse">
<stop stop-color="#FCB148"/>
<stop offset="0.0521" stop-color="#FDBA46"/>
<stop offset="0.1424" stop-color="#FFC244"/>
<stop offset="0.3183" stop-color="#FFC444"/>
<stop offset="0.4849" stop-color="#FDB946"/>
<stop offset="0.7754" stop-color="#F99C4D"/>
<stop offset="0.8658" stop-color="#F8924F"/>
<stop offset="1" stop-color="#F8924F"/>
</linearGradient>
<linearGradient id="paint4_linear_47257_108841" x1="284.935" y1="513.158" x2="251.911" y2="527.028" gradientUnits="userSpaceOnUse">
<stop stop-color="#40447E"/>
<stop offset="0.9964" stop-color="#3C3B6B"/>
</linearGradient>
<linearGradient id="paint5_linear_47257_108841" x1="231.203" y1="366.346" x2="196.962" y2="380.727" gradientUnits="userSpaceOnUse">
<stop stop-color="#40447E"/>
<stop offset="0.9964" stop-color="#3C3B6B"/>
</linearGradient>
<linearGradient id="paint6_linear_47257_108841" x1="86.3903" y1="374.636" x2="398.425" y2="374.636" gradientUnits="userSpaceOnUse">
<stop stop-color="#40447E"/>
<stop offset="0.9964" stop-color="#3C3B6B"/>
</linearGradient>
<linearGradient id="paint7_linear_47257_108841" x1="86.3903" y1="498.578" x2="556.457" y2="498.578" gradientUnits="userSpaceOnUse">
<stop stop-color="#40447E"/>
<stop offset="0.9964" stop-color="#3C3B6B"/>
</linearGradient>
<linearGradient id="paint8_linear_47257_108841" x1="132.488" y1="494.691" x2="476.903" y2="494.691" gradientUnits="userSpaceOnUse">
<stop stop-color="#40447E"/>
<stop offset="0.9964" stop-color="#3C3B6B"/>
</linearGradient>
<linearGradient id="paint9_linear_47257_108841" x1="395.423" y1="93.0167" x2="131.956" y2="619.951" gradientUnits="userSpaceOnUse">
<stop offset="0.00359712" stop-color="#E38DDD"/>
<stop offset="1" stop-color="#9571F6"/>
</linearGradient>
<linearGradient id="paint10_linear_47257_108841" x1="281.473" y1="76.5606" x2="327.251" y2="259.675" gradientUnits="userSpaceOnUse">
<stop offset="0.00359712" stop-color="#E38DDD"/>
<stop offset="1" stop-color="#9571F6"/>
</linearGradient>
<linearGradient id="paint11_linear_47257_108841" x1="229.08" y1="256.504" x2="172.393" y2="528.286" gradientUnits="userSpaceOnUse">
<stop stop-color="#FF9085"/>
<stop offset="1" stop-color="#FB6FBB"/>
</linearGradient>
<linearGradient id="paint12_linear_47257_108841" x1="198.209" y1="541.168" x2="181.24" y2="541.659" gradientUnits="userSpaceOnUse">
<stop stop-color="#444B8C"/>
<stop offset="0.9964" stop-color="#26264F"/>
</linearGradient>
<linearGradient id="paint13_linear_47257_108841" x1="253.314" y1="536.495" x2="235.923" y2="541.276" gradientUnits="userSpaceOnUse">
<stop stop-color="#444B8C"/>
<stop offset="0.9964" stop-color="#26264F"/>
</linearGradient>
<linearGradient id="paint14_linear_47257_108841" x1="247.39" y1="507.137" x2="199.283" y2="398.693" gradientUnits="userSpaceOnUse">
<stop stop-color="#AA80F9"/>
<stop offset="0.9964" stop-color="#6165D7"/>
</linearGradient>
<linearGradient id="paint15_linear_47257_108841" x1="223.764" y1="512.275" x2="162.735" y2="410.539" gradientUnits="userSpaceOnUse">
<stop stop-color="#AA80F9"/>
<stop offset="0.9964" stop-color="#6165D7"/>
</linearGradient>
<linearGradient id="paint16_linear_47257_108841" x1="209.452" y1="252.41" x2="152.766" y2="524.192" gradientUnits="userSpaceOnUse">
<stop stop-color="#FF9085"/>
<stop offset="1" stop-color="#FB6FBB"/>
</linearGradient>
<linearGradient id="paint17_linear_47257_108841" x1="160.702" y1="484.848" x2="182.216" y2="382.658" gradientUnits="userSpaceOnUse">
<stop stop-color="#FF9085"/>
<stop offset="1" stop-color="#FB6FBB"/>
</linearGradient>
<linearGradient id="paint18_linear_47257_108841" x1="170.62" y1="244.311" x2="113.934" y2="516.093" gradientUnits="userSpaceOnUse">
<stop stop-color="#FF9085"/>
<stop offset="1" stop-color="#FB6FBB"/>
</linearGradient>
<linearGradient id="paint19_linear_47257_108841" x1="218.948" y1="396.045" x2="209.775" y2="370.056" gradientUnits="userSpaceOnUse">
<stop stop-color="#311944"/>
<stop offset="1" stop-color="#893976"/>
</linearGradient>
<linearGradient id="paint20_linear_47257_108841" x1="178.876" y1="358.39" x2="182.239" y2="381.628" gradientUnits="userSpaceOnUse">
<stop stop-color="#311944"/>
<stop offset="1" stop-color="#893976"/>
</linearGradient>
<linearGradient id="paint21_linear_47257_108841" x1="178.717" y1="362.038" x2="197.726" y2="362.038" gradientUnits="userSpaceOnUse">
<stop stop-color="#FFC444"/>
<stop offset="0.9964" stop-color="#F36F56"/>
</linearGradient>
<linearGradient id="paint22_linear_47257_108841" x1="245.519" y1="360.426" x2="227.636" y2="335.031" gradientUnits="userSpaceOnUse">
<stop stop-color="#444B8C"/>
<stop offset="0.9964" stop-color="#26264F"/>
</linearGradient>
<linearGradient id="paint23_linear_47257_108841" x1="211.215" y1="402.454" x2="250.353" y2="322.956" gradientUnits="userSpaceOnUse">
<stop stop-color="#311944"/>
<stop offset="1" stop-color="#893976"/>
</linearGradient>
<linearGradient id="paint24_linear_47257_108841" x1="192.097" y1="351.429" x2="278.077" y2="351.429" gradientUnits="userSpaceOnUse">
<stop stop-color="#311944"/>
<stop offset="1" stop-color="#893976"/>
</linearGradient>
<linearGradient id="paint25_linear_47257_108841" x1="266.588" y1="371.762" x2="279.412" y2="371.762" gradientUnits="userSpaceOnUse">
<stop stop-color="#FFC444"/>
<stop offset="0.9964" stop-color="#F36F56"/>
</linearGradient>
<linearGradient id="paint26_linear_47257_108841" x1="188.639" y1="256.41" x2="174.711" y2="345.015" gradientUnits="userSpaceOnUse">
<stop stop-color="#FFC444"/>
<stop offset="0.9964" stop-color="#F36F56"/>
</linearGradient>
<linearGradient id="paint27_linear_47257_108841" x1="177.962" y1="269.157" x2="196.913" y2="269.157" gradientUnits="userSpaceOnUse">
<stop stop-color="#40447E"/>
<stop offset="0.9964" stop-color="#3C3B6B"/>
</linearGradient>
<linearGradient id="paint28_linear_47257_108841" x1="188.146" y1="268.388" x2="188.442" y2="292.391" gradientUnits="userSpaceOnUse">
<stop stop-color="#FFC444"/>
<stop offset="0.9964" stop-color="#F36F56"/>
</linearGradient>
<linearGradient id="paint29_linear_47257_108841" x1="180.23" y1="275.448" x2="196.601" y2="275.448" gradientUnits="userSpaceOnUse">
<stop stop-color="#40447E"/>
<stop offset="0.9964" stop-color="#3C3B6B"/>
</linearGradient>
<linearGradient id="paint30_linear_47257_108841" x1="191.24" y1="277.015" x2="194.855" y2="277.015" gradientUnits="userSpaceOnUse">
<stop stop-color="#FFC444"/>
<stop offset="0.9964" stop-color="#F36F56"/>
</linearGradient>
<linearGradient id="paint31_linear_47257_108841" x1="421.018" y1="330.561" x2="422.091" y2="349.217" gradientUnits="userSpaceOnUse">
<stop stop-color="#311944"/>
<stop offset="1" stop-color="#A03976"/>
</linearGradient>
<linearGradient id="paint32_linear_47257_108841" x1="443.378" y1="331.034" x2="446.074" y2="377.951" gradientUnits="userSpaceOnUse">
<stop stop-color="#AA80F9"/>
<stop offset="0.9964" stop-color="#6165D7"/>
</linearGradient>
<linearGradient id="paint33_linear_47257_108841" x1="502.176" y1="428.412" x2="535.298" y2="445.251" gradientUnits="userSpaceOnUse">
<stop offset="0.00359712" stop-color="#E38DDD"/>
<stop offset="1" stop-color="#9571F6"/>
</linearGradient>
<linearGradient id="paint34_linear_47257_108841" x1="502.761" y1="433.921" x2="512.285" y2="436.217" gradientUnits="userSpaceOnUse">
<stop stop-color="#311944"/>
<stop offset="1" stop-color="#A03976"/>
</linearGradient>
<linearGradient id="paint35_linear_47257_108841" x1="495.019" y1="474.796" x2="462.732" y2="516.964" gradientUnits="userSpaceOnUse">
<stop offset="0.00359712" stop-color="#E38DDD"/>
<stop offset="1" stop-color="#9571F6"/>
</linearGradient>
<linearGradient id="paint36_linear_47257_108841" x1="509.036" y1="483.33" x2="491.05" y2="487.222" gradientUnits="userSpaceOnUse">
<stop stop-color="#311944"/>
<stop offset="1" stop-color="#A03976"/>
</linearGradient>
<linearGradient id="paint37_linear_47257_108841" x1="465.373" y1="380.669" x2="479.986" y2="456.237" gradientUnits="userSpaceOnUse">
<stop stop-color="#FFC444"/>
<stop offset="0.9964" stop-color="#F36F56"/>
</linearGradient>
<linearGradient id="paint38_linear_47257_108841" x1="436.049" y1="370.375" x2="468.902" y2="419.641" gradientUnits="userSpaceOnUse">
<stop stop-color="#FFC444"/>
<stop offset="0.9964" stop-color="#F36F56"/>
</linearGradient>
<linearGradient id="paint39_linear_47257_108841" x1="494.38" y1="385.268" x2="464.528" y2="481.711" gradientUnits="userSpaceOnUse">
<stop stop-color="#FFC444"/>
<stop offset="0.9964" stop-color="#F36F56"/>
</linearGradient>
<linearGradient id="paint40_linear_47257_108841" x1="484.657" y1="316.178" x2="471.445" y2="427.809" gradientUnits="userSpaceOnUse">
<stop stop-color="#AA80F9"/>
<stop offset="0.9964" stop-color="#6165D7"/>
</linearGradient>
<linearGradient id="paint41_linear_47257_108841" x1="485.293" y1="352.665" x2="476.365" y2="307.924" gradientUnits="userSpaceOnUse">
<stop stop-color="#311944"/>
<stop offset="1" stop-color="#6B3976"/>
</linearGradient>
<linearGradient id="paint42_linear_47257_108841" x1="482.702" y1="312.54" x2="475.681" y2="342.899" gradientUnits="userSpaceOnUse">
<stop stop-color="#311944"/>
<stop offset="1" stop-color="#A03976"/>
</linearGradient>
<linearGradient id="paint43_linear_47257_108841" x1="496.08" y1="310.693" x2="480.443" y2="319.542" gradientUnits="userSpaceOnUse">
<stop stop-color="#311944"/>
<stop offset="1" stop-color="#A03976"/>
</linearGradient>
<linearGradient id="paint44_linear_47257_108841" x1="533.446" y1="-83.9121" x2="475.024" y2="409.695" gradientUnits="userSpaceOnUse">
<stop stop-color="#AA80F9"/>
<stop offset="0.9964" stop-color="#6165D7"/>
</linearGradient>
<linearGradient id="paint45_linear_47257_108841" x1="553.536" y1="431.469" x2="478.704" y2="402.905" gradientUnits="userSpaceOnUse">
<stop stop-color="#311944"/>
<stop offset="1" stop-color="#A03976"/>
</linearGradient>
<linearGradient id="paint46_linear_47257_108841" x1="512.185" y1="319.436" x2="498.973" y2="431.067" gradientUnits="userSpaceOnUse">
<stop stop-color="#AA80F9"/>
<stop offset="0.9964" stop-color="#6165D7"/>
</linearGradient>
<linearGradient id="paint47_linear_47257_108841" x1="366.091" y1="460.301" x2="366.947" y2="477.196" gradientUnits="userSpaceOnUse">
<stop stop-color="#AA80F9"/>
<stop offset="0.9964" stop-color="#6165D7"/>
</linearGradient>
<linearGradient id="paint48_linear_47257_108841" x1="368.791" y1="448.587" x2="364.438" y2="482.6" gradientUnits="userSpaceOnUse">
<stop stop-color="#FFC444"/>
<stop offset="0.9964" stop-color="#F36F56"/>
</linearGradient>
<linearGradient id="paint49_linear_47257_108841" x1="408.184" y1="453.01" x2="324.875" y2="453.01" gradientUnits="userSpaceOnUse">
<stop stop-color="#FFC444"/>
<stop offset="0.0985" stop-color="#FEBC46"/>
<stop offset="0.9964" stop-color="#F36F56"/>
</linearGradient>
<linearGradient id="paint50_linear_47257_108841" x1="341.518" y1="353.174" x2="382.733" y2="396.283" gradientUnits="userSpaceOnUse">
<stop stop-color="#444B8C"/>
<stop offset="0.9964" stop-color="#26264F"/>
</linearGradient>
<linearGradient id="paint51_linear_47257_108841" x1="388.051" y1="446.512" x2="392.544" y2="481.625" gradientUnits="userSpaceOnUse">
<stop stop-color="#FFC444"/>
<stop offset="0.0985" stop-color="#FEBC46"/>
<stop offset="0.9964" stop-color="#F36F56"/>
</linearGradient>
<linearGradient id="paint52_linear_47257_108841" x1="339.087" y1="448.285" x2="334.406" y2="484.867" gradientUnits="userSpaceOnUse">
<stop stop-color="#FFC444"/>
<stop offset="0.0985" stop-color="#FEBC46"/>
<stop offset="0.9964" stop-color="#F36F56"/>
</linearGradient>
<linearGradient id="paint53_linear_47257_108841" x1="365.154" y1="388.499" x2="364.702" y2="409.983" gradientUnits="userSpaceOnUse">
<stop stop-color="#311944"/>
<stop offset="1" stop-color="#A03976"/>
</linearGradient>
<linearGradient id="paint54_linear_47257_108841" x1="392.28" y1="379.84" x2="357.477" y2="396.163" gradientUnits="userSpaceOnUse">
<stop stop-color="#311944"/>
<stop offset="1" stop-color="#A03976"/>
</linearGradient>
<linearGradient id="paint55_linear_47257_108841" x1="363.769" y1="475.277" x2="313.767" y2="475.277" gradientUnits="userSpaceOnUse">
<stop stop-color="#AA80F9"/>
<stop offset="0.9964" stop-color="#6165D7"/>
</linearGradient>
<linearGradient id="paint56_linear_47257_108841" x1="363.769" y1="475.393" x2="313.767" y2="475.393" gradientUnits="userSpaceOnUse">
<stop stop-color="#AA80F9"/>
<stop offset="0.9964" stop-color="#6165D7"/>
</linearGradient>
<linearGradient id="paint57_linear_47257_108841" x1="350.277" y1="497.887" x2="359.901" y2="485.911" gradientUnits="userSpaceOnUse">
<stop stop-color="#311944"/>
<stop offset="1" stop-color="#6B3976"/>
</linearGradient>
<linearGradient id="paint58_linear_47257_108841" x1="356.185" y1="495.043" x2="369.445" y2="478.361" gradientUnits="userSpaceOnUse">
<stop stop-color="#311944"/>
<stop offset="1" stop-color="#A03976"/>
</linearGradient>
<linearGradient id="paint59_linear_47257_108841" x1="371.99" y1="448.529" x2="367.836" y2="427.331" gradientUnits="userSpaceOnUse">
<stop stop-color="#311944"/>
<stop offset="1" stop-color="#A03976"/>
</linearGradient>
<linearGradient id="paint60_linear_47257_108841" x1="350.894" y1="488.844" x2="357.521" y2="470.067" gradientUnits="userSpaceOnUse">
<stop stop-color="#311944"/>
<stop offset="1" stop-color="#893976"/>
</linearGradient>
<linearGradient id="paint61_linear_47257_108841" x1="383.349" y1="463.194" x2="381.242" y2="477.751" gradientUnits="userSpaceOnUse">
<stop stop-color="#311944"/>
<stop offset="1" stop-color="#893976"/>
</linearGradient>
<linearGradient id="paint62_linear_47257_108841" x1="339.937" y1="463.807" x2="351.759" y2="447.021" gradientUnits="userSpaceOnUse">
<stop stop-color="#444B8C"/>
<stop offset="0.9964" stop-color="#26264F"/>
</linearGradient>
<linearGradient id="paint63_linear_47257_108841" x1="362.613" y1="491.589" x2="336.742" y2="439.039" gradientUnits="userSpaceOnUse">
<stop stop-color="#311944"/>
<stop offset="1" stop-color="#893976"/>
</linearGradient>
<linearGradient id="paint64_linear_47257_108841" x1="375.251" y1="457.86" x2="318.416" y2="457.86" gradientUnits="userSpaceOnUse">
<stop stop-color="#311944"/>
<stop offset="1" stop-color="#893976"/>
</linearGradient>
<linearGradient id="paint65_linear_47257_108841" x1="380.244" y1="473.32" x2="397.527" y2="495.626" gradientUnits="userSpaceOnUse">
<stop stop-color="#AA80F9"/>
<stop offset="0.9964" stop-color="#6165D7"/>
</linearGradient>
<linearGradient id="paint66_linear_47257_108841" x1="352.777" y1="190.674" x2="416.486" y2="318.522" gradientUnits="userSpaceOnUse">
<stop stop-color="#311944"/>
<stop offset="1" stop-color="#A03976"/>
</linearGradient>
<linearGradient id="paint67_linear_47257_108841" x1="372.741" y1="241.832" x2="434.32" y2="356.042" gradientUnits="userSpaceOnUse">
<stop stop-color="#FF9085"/>
<stop offset="1" stop-color="#FB6FBB"/>
</linearGradient>
<linearGradient id="paint68_linear_47257_108841" x1="354.78" y1="249.749" x2="414.002" y2="368.593" gradientUnits="userSpaceOnUse">
<stop stop-color="#FF9085"/>
<stop offset="1" stop-color="#FB6FBB"/>
</linearGradient>
<linearGradient id="paint69_linear_47257_108841" x1="432.372" y1="121.939" x2="501.744" y2="261.15" gradientUnits="userSpaceOnUse">
<stop stop-color="#311944"/>
<stop offset="1" stop-color="#A03976"/>
</linearGradient>
<linearGradient id="paint70_linear_47257_108841" x1="453.4" y1="179.373" x2="520.782" y2="304.346" gradientUnits="userSpaceOnUse">
<stop stop-color="#FFC444"/>
<stop offset="0.9964" stop-color="#F36F56"/>
</linearGradient>
<linearGradient id="paint71_linear_47257_108841" x1="434.487" y1="186.622" x2="500.169" y2="318.429" gradientUnits="userSpaceOnUse">
<stop stop-color="#FFC444"/>
<stop offset="0.9964" stop-color="#F36F56"/>
</linearGradient>
<linearGradient id="paint72_linear_47257_108841" x1="327.689" y1="33.6083" x2="388.753" y2="156.15" gradientUnits="userSpaceOnUse">
<stop stop-color="#444B8C"/>
<stop offset="0.9964" stop-color="#26264F"/>
</linearGradient>
<linearGradient id="paint73_linear_47257_108841" x1="335.051" y1="61.1502" x2="394.363" y2="171.157" gradientUnits="userSpaceOnUse">
<stop stop-color="#AA80F9"/>
<stop offset="0.9964" stop-color="#6165D7"/>
</linearGradient>
<linearGradient id="paint74_linear_47257_108841" x1="347.31" y1="121.408" x2="404.931" y2="237.038" gradientUnits="userSpaceOnUse">
<stop stop-color="#AA80F9"/>
<stop offset="0.9964" stop-color="#6165D7"/>
</linearGradient>
</defs>
</svg>
