<svg width="14" height="21" viewBox="0 0 14 21" fill="none" xmlns="http://www.w3.org/2000/svg">
<path d="M2 20.5C1.45 20.5 0.979002 20.304 0.587002 19.912C0.195002 19.52 -0.000664969 19.0493 1.69779e-06 18.5V8.5C1.69779e-06 7.95 0.196001 7.479 0.588001 7.087C0.980001 6.695 1.45067 6.49934 2 6.5H12C12.55 6.5 13.021 6.696 13.413 7.088C13.805 7.48 14.0007 7.95067 14 8.5V18.5C14 19.05 13.804 19.521 13.412 19.913C13.02 20.305 12.5493 20.5007 12 20.5H2ZM6 19H8V17.5H6V19ZM6 16.5H8C8 16.1167 8.12933 15.7377 8.388 15.363C8.64667 14.9883 8.934 14.5967 9.25 14.188C9.56667 13.7793 9.85433 13.354 10.113 12.912C10.3717 12.47 10.5007 11.9993 10.5 11.5C10.5 10.5333 10.1583 9.70833 9.475 9.025C8.79167 8.34167 7.96667 8 7 8C6.03334 8 5.20833 8.34167 4.525 9.025C3.84167 9.70833 3.5 10.5333 3.5 11.5C3.5 12 3.62933 12.471 3.888 12.913C4.14667 13.355 4.434 13.7797 4.75 14.187C5.06667 14.5957 5.35434 14.9877 5.613 15.363C5.87167 15.7383 6.00067 16.1173 6 16.5ZM1 5C1 4.58334 1.146 4.229 1.438 3.937C1.73 3.645 2.084 3.49934 2.5 3.5H11.5C11.9167 3.5 12.271 3.646 12.563 3.938C12.855 4.23 13.0007 4.584 13 5H1ZM2 2C2 1.58334 2.146 1.229 2.438 0.937002C2.73 0.645002 3.084 0.499336 3.5 0.500002H10.5C10.9167 0.500002 11.271 0.646002 11.563 0.938002C11.855 1.23 12.0007 1.584 12 2H2Z" fill="#6FA5AB"/>
</svg>
