<svg width="12" height="12" viewBox="0 0 12 12" fill="none" xmlns="http://www.w3.org/2000/svg">
<path d="M6 10.1175L10.5 9.47475V1.98975L6.159 2.61C6.05353 2.62506 5.94647 2.62506 5.841 2.61L1.5 1.98975V9.47475L6 10.1175ZM1.60575 1.24725L5.94675 1.8675C5.98207 1.87257 6.01793 1.87257 6.05325 1.8675L10.3942 1.24725C10.5006 1.23211 10.609 1.23998 10.712 1.27035C10.8151 1.30072 10.9104 1.35287 10.9915 1.42327C11.0727 1.49368 11.1377 1.58069 11.1823 1.67842C11.2269 1.77615 11.25 1.88233 11.25 1.98975V9.47475C11.25 9.65534 11.1848 9.82987 11.0665 9.96627C10.9481 10.1027 10.7845 10.1918 10.6058 10.2173L6.05325 10.8675C6.01793 10.8726 5.98207 10.8726 5.94675 10.8675L1.39425 10.2173C1.21546 10.1918 1.05187 10.1027 0.933516 9.96627C0.815164 9.82987 0.750002 9.65534 0.75 9.47475V1.98975C0.750001 1.88233 0.77308 1.77615 0.817675 1.67842C0.86227 1.58069 0.92734 1.49368 1.00848 1.42327C1.08962 1.35287 1.18494 1.30072 1.28799 1.27035C1.39103 1.23998 1.4994 1.23211 1.60575 1.24725Z" fill="#828282"/>
<path d="M5.625 2.25H6.375V10.5H5.625V2.25Z" fill="#828282"/>
</svg>
