<svg width="132" height="28" viewBox="0 0 132 28" fill="none" xmlns="http://www.w3.org/2000/svg">
<path d="M106.826 21.9181H103.658V13.6049C103.658 9.06058 107.253 5.3642 111.672 5.3642C113.277 5.3642 114.828 5.85123 116.155 6.77298L114.381 9.47248C113.58 8.91567 112.644 8.62184 111.672 8.62184C109 8.62184 106.826 10.8571 106.826 13.6049V21.9181Z" fill="#EE3425"/>
<path d="M8.01463 21.8362C3.59497 21.8362 0 18.1398 0 13.5955C0 9.05115 3.59497 5.35477 8.01463 5.35477C10.9284 5.35477 13.6165 6.98627 15.0297 9.61198L12.2581 11.1885C11.4034 9.5999 9.77753 8.61241 8.01593 8.61241C5.34352 8.61241 3.16957 10.8477 3.16957 13.5955C3.16957 16.3433 5.34352 18.5785 8.01593 18.5785C9.73447 18.5785 11.2899 17.6662 12.1759 16.1393L14.8966 17.8084C13.4547 20.2932 10.8188 21.8362 8.01593 21.8362H8.01463Z" fill="#EE3425"/>
<path d="M23.7673 21.8362C19.3477 21.8362 15.7527 18.1398 15.7527 13.5955C15.7527 9.05115 19.3477 5.35477 23.7673 5.35477C28.187 5.35477 31.7819 9.05115 31.7819 13.5955C31.7819 18.1398 28.187 21.8362 23.7673 21.8362ZM23.7673 8.61241C21.0949 8.61241 18.921 10.8477 18.921 13.5955C18.921 16.3433 21.0949 18.5785 23.7673 18.5785C26.4397 18.5785 28.6137 16.3433 28.6137 13.5955C28.6137 10.8477 26.4397 8.61241 23.7673 8.61241Z" fill="#EE3425"/>
<path d="M58.7824 21.8362C54.3628 21.8362 50.7678 18.1398 50.7678 13.5955C50.7678 9.05115 54.3628 5.35477 58.7824 5.35477C63.2021 5.35477 66.7971 9.05115 66.7971 13.5955C66.7971 18.1398 63.2021 21.8362 58.7824 21.8362ZM58.7824 8.61241C56.11 8.61241 53.9361 10.8477 53.9361 13.5955C53.9361 16.3433 56.11 18.5785 58.7824 18.5785C61.4549 18.5785 63.6288 16.3433 63.6288 13.5955C63.6288 10.8477 61.4549 8.61241 58.7824 8.61241Z" fill="#EE3425"/>
<path d="M93.6736 21.8362C89.2539 21.8362 85.6589 18.1398 85.6589 13.5955C85.6589 9.05115 89.2539 5.35477 93.6736 5.35477C98.0932 5.35477 101.688 9.05115 101.688 13.5955C101.688 18.1398 98.0932 21.8362 93.6736 21.8362ZM93.6736 8.61241C91.0011 8.61241 88.8272 10.8477 88.8272 13.5955C88.8272 16.3433 91.0011 18.5785 93.6736 18.5785C96.346 18.5785 98.5199 16.3433 98.5199 13.5955C98.5199 10.8477 96.346 8.61241 93.6736 8.61241Z" fill="#EE3425"/>
<path d="M76.2068 5.35477C71.7871 5.35477 68.1921 9.05115 68.1921 13.5955V25.7298H71.3604V20.1524C72.707 21.2069 74.3864 21.8362 76.2068 21.8362C80.6264 21.8362 84.2214 18.1398 84.2214 13.5955C84.2214 9.05115 80.6264 5.35477 76.2068 5.35477ZM76.2068 18.5785C73.5343 18.5785 71.3604 16.3433 71.3604 13.5955C71.3604 10.8477 73.5343 8.61241 76.2068 8.61241C78.8792 8.61241 81.0531 10.8477 81.0531 13.5955C81.0531 16.3433 78.8792 18.5785 76.2068 18.5785Z" fill="#EE3425"/>
<path d="M127.034 6.5771H120.855V2.55603H117.687V21.9181H120.855V9.83475H127.034V6.5771Z" fill="#EE3425"/>
<path d="M49.9045 5.6057C49.2298 4.91205 48.165 5.22734 47.5818 5.82574C47.2621 6.15446 46.9437 6.79982 46.6709 7.47201C45.1481 6.05249 43.1008 5.22734 40.8903 5.33736C36.4641 5.55606 33.0362 9.43625 33.2476 13.9873C33.4603 18.5383 37.234 22.063 41.6602 21.8443C46.0864 21.6256 49.5143 17.7454 49.3016 13.1944C49.2285 11.6366 48.7379 10.1997 47.9484 8.99081C48.6505 8.69832 49.346 8.34679 49.6892 7.99393C50.2711 7.39553 50.5778 6.29936 49.9032 5.6057H49.9045ZM41.5088 18.5813C38.8325 18.7128 36.5502 16.5821 36.421 13.829C36.2932 11.0771 38.3653 8.73052 41.043 8.59769C43.7193 8.46621 46.0015 10.5968 46.1307 13.35C46.2586 16.1018 44.1864 18.4484 41.5088 18.5813Z" fill="#EE3425"/>
<path d="M48.6213 22.2776C48.3055 21.8858 47.8071 22.0951 47.4769 22.3581C47.0385 22.7082 46.5961 23.0504 46.1225 23.3523C45.1816 23.9533 44.1495 24.4176 43.0534 24.6094C42.0068 24.7919 40.5415 24.7919 39.4936 24.6094C38.3975 24.4176 37.3654 23.9533 36.4245 23.3523C35.9522 23.0504 35.5098 22.7096 35.0701 22.3581C34.7399 22.0951 34.2428 21.8858 33.9257 22.2776C33.3215 23.0276 33.7012 24.2056 34.1501 24.9314C34.7269 25.8626 35.7395 26.4905 36.6725 26.9842C36.6907 26.9936 36.709 27.003 36.7273 27.0124C38.1248 27.7302 39.538 27.9999 41.2722 27.9999C43.0064 27.9999 44.4196 27.7302 45.8171 27.0124C45.8354 27.003 45.8537 26.9936 45.8719 26.9842C46.8049 26.4905 47.8162 25.8626 48.3943 24.9314C48.8432 24.2069 49.2229 23.0276 48.6187 22.2776H48.6213Z" fill="#EE3425"/>
<path d="M128.653 1.04789C128.653 1.04789 129.429 1.03984 129.812 1.04923C130.283 1.06131 130.665 1.49333 130.64 1.975C130.621 2.34934 130.434 2.62304 130.079 2.78271C130.249 3.18387 130.591 3.98755 130.591 3.98755H130.044L129.568 2.83906H129.149V3.98621H128.653V1.04789ZM129.147 2.33189C129.147 2.33189 129.787 2.33189 129.802 2.33055C129.989 2.31177 130.138 2.15211 130.143 1.96293C130.15 1.7335 129.984 1.56042 129.754 1.55908H129.146V2.33189H129.147Z" fill="#EE3425"/>
<path d="M132 2.54118C132 3.94459 130.893 5.08236 129.529 5.08236C128.164 5.08236 127.057 3.94459 127.057 2.54118C127.057 1.13776 128.164 0 129.529 0C130.893 0 132 1.13776 132 2.54118ZM129.529 0.533995C128.451 0.533995 127.576 1.43293 127.576 2.54118C127.576 3.64942 128.451 4.54836 129.529 4.54836C130.606 4.54836 131.481 3.64942 131.481 2.54118C131.481 1.43293 130.606 0.533995 129.529 0.533995Z" fill="#EE3425"/>
</svg>
