<svg width="16" height="15" viewBox="0 0 16 15" fill="none" xmlns="http://www.w3.org/2000/svg">
<path d="M0.666748 7.35779C0.666748 3.30779 3.95008 0.0244541 8.00008 0.0244541C12.0501 0.0244541 15.3334 3.30779 15.3334 7.35779C15.3334 11.4078 12.0501 14.6911 8.00008 14.6911C3.95008 14.6911 0.666748 11.4078 0.666748 7.35779ZM8.38341 4.19112C8.38341 4.04525 8.32547 3.90536 8.22232 3.80221C8.11918 3.69907 7.97928 3.64112 7.83342 3.64112C7.68755 3.64112 7.54765 3.69907 7.44451 3.80221C7.34136 3.90536 7.28341 4.04525 7.28341 4.19112V7.85779C7.28341 8.05512 7.38941 8.23779 7.56075 8.33512L9.89408 9.66845C10.0203 9.73533 10.1676 9.75047 10.3048 9.71068C10.442 9.67089 10.5583 9.57928 10.6291 9.45525C10.7 9.33122 10.7198 9.18449 10.6844 9.04611C10.649 8.90772 10.5611 8.78855 10.4394 8.71379L8.38341 7.53845V4.19112Z" fill="#828282"/>
</svg>
