<svg width="12" height="15" viewBox="0 0 12 15" fill="none" xmlns="http://www.w3.org/2000/svg">
<path fill-rule="evenodd" clip-rule="evenodd" d="M4.06436 0.428589C3.74877 0.428589 3.49294 0.684426 3.49294 1.00002C3.49294 1.31561 3.74877 1.57145 4.06436 1.57145H7.9366C8.25219 1.57145 8.50803 1.31561 8.50803 1.00002C8.50803 0.684426 8.25219 0.428589 7.9366 0.428589H4.06436ZM0.00463867 3.97922C0.00463867 3.50583 0.388395 3.12207 0.861782 3.12207H11.1381C11.6115 3.12207 11.9952 3.50583 11.9952 3.97922C11.9952 4.4526 11.6115 4.83636 11.1381 4.83636H10.7286C10.752 4.92761 10.7645 5.02326 10.7645 5.12183V13.8571C10.7645 14.4883 10.2528 14.9999 9.62164 14.9999H2.3757C1.74452 14.9999 1.23284 14.4883 1.23284 13.8571V5.12184C1.23284 5.02326 1.24532 4.92761 1.26879 4.83636H0.861782C0.388395 4.83636 0.00463867 4.4526 0.00463867 3.97922ZM6.67373 7.54994C6.67373 7.23435 6.41789 6.97851 6.1023 6.97851C5.78671 6.97851 5.53087 7.23435 5.53087 7.54994L5.53087 11.4222C5.53087 11.7378 5.78671 11.9936 6.1023 11.9936C6.41789 11.9936 6.67373 11.7378 6.67373 11.4222V7.54994ZM8.43875 6.95892C8.75434 6.95892 9.01017 7.21476 9.01017 7.53035V11.4026C9.01017 11.7182 8.75434 11.974 8.43875 11.974C8.12315 11.974 7.86732 11.7182 7.86732 11.4026L7.86732 7.53035C7.86732 7.21476 8.12315 6.95892 8.43875 6.95892ZM4.13444 7.54994C4.13444 7.23435 3.87861 6.97851 3.56301 6.97851C3.24742 6.97851 2.99159 7.23435 2.99159 7.54994L2.99159 11.4222C2.99159 11.7378 3.24742 11.9936 3.56301 11.9936C3.87861 11.9936 4.13444 11.7378 4.13444 11.4222L4.13444 7.54994Z" fill="#828282"/>
</svg>
