<svg width="14" height="14" viewBox="0 0 14 14" fill="none" xmlns="http://www.w3.org/2000/svg">
<path d="M10.5674 0.609506C10.7516 0.418821 10.9719 0.266723 11.2155 0.162089C11.4591 0.0574546 11.7211 0.00237897 11.9862 7.53811e-05C12.2512 -0.00222821 12.5141 0.0482866 12.7595 0.148672C13.0049 0.249058 13.2278 0.397303 13.4152 0.58476C13.6027 0.772216 13.7509 0.995129 13.8513 1.24049C13.9517 1.48585 14.0022 1.74875 13.9999 2.01384C13.9976 2.27894 13.9425 2.54092 13.8379 2.7845C13.7333 3.02808 13.5812 3.24838 13.3905 3.43255L12.7757 4.04738C12.678 4.14502 12.5197 4.14502 12.4221 4.04738L9.95262 1.57789C9.85499 1.48026 9.85499 1.32197 9.95262 1.22434L10.5674 0.609506ZM8.54109 2.98935C8.44346 2.89175 8.28519 2.89177 8.18757 2.98938L0.0732238 11.1037C0.0263398 11.1506 0 11.2142 0 11.2805V13.75C0 13.8881 0.111929 14 0.25 14H2.7195C2.7858 14 2.84938 13.9737 2.89627 13.9268L11.0115 5.81249C11.1092 5.71485 11.1092 5.55653 11.0115 5.4589L8.54109 2.98935Z" fill="#828282"/>
</svg>
