<svg width="12" height="11" viewBox="0 0 12 11" fill="none" xmlns="http://www.w3.org/2000/svg">
<path d="M0 2.99845V8.70005C0 9.23048 0.197543 9.73919 0.549174 10.1143C0.900805 10.4893 1.37772 10.7 1.875 10.7H10.125C10.6223 10.7 11.0992 10.4893 11.4508 10.1143C11.8025 9.73919 12 9.23048 12 8.70005V2.99845L6.1905 6.64485C6.13278 6.68116 6.067 6.70031 6 6.70031C5.933 6.70031 5.86721 6.68116 5.8095 6.64485L0 2.99845ZM1.875 0.300049C1.41364 0.299971 0.968449 0.481334 0.624596 0.809441C0.280742 1.13755 0.0623684 1.58936 0.0112495 2.07845L6 5.83605L11.9887 2.07845C11.9376 1.58936 11.7193 1.13755 11.3754 0.809441C11.0316 0.481334 10.5864 0.299971 10.125 0.300049H1.875Z" fill="#221F20"/>
</svg>
