<svg width="14" height="12" viewBox="0 0 14 12" fill="none" xmlns="http://www.w3.org/2000/svg">
<path d="M5.1401 5.99989C5.1401 6.47616 5.3293 6.93292 5.66607 7.26969C6.00284 7.60646 6.4596 7.79566 6.93586 7.79566C7.41213 7.79566 7.86889 7.60646 8.20566 7.26969C8.54243 6.93292 8.73162 6.47616 8.73162 5.99989C8.73162 5.52363 8.54243 5.06687 8.20566 4.7301C7.86889 4.39333 7.41213 4.20413 6.93586 4.20413C6.4596 4.20413 6.00284 4.39333 5.66607 4.7301C5.3293 5.06687 5.1401 5.52363 5.1401 5.99989ZM13.8976 5.58623C12.3777 2.38432 10.08 0.772949 7 0.772949C3.91834 0.772949 1.62233 2.38432 0.102352 5.58783C0.0413849 5.71693 0.00976563 5.85793 0.00976562 6.0007C0.00976562 6.14347 0.0413849 6.28446 0.102352 6.41356C1.62233 9.61547 3.91995 11.2268 7 11.2268C10.0816 11.2268 12.3777 9.61547 13.8976 6.41196C14.0211 6.15221 14.0211 5.85078 13.8976 5.58623ZM6.93586 8.8218C5.3774 8.8218 4.11395 7.55836 4.11395 5.99989C4.11395 4.44143 5.3774 3.17799 6.93586 3.17799C8.49432 3.17799 9.75777 4.44143 9.75777 5.99989C9.75777 7.55836 8.49432 8.8218 6.93586 8.8218Z" fill="#757575"/>
</svg>
