<?xml version="1.0" encoding="utf-8"?>
<!-- Svg Vector Icons : http://www.onlinewebfonts.com/icon -->
<!DOCTYPE svg PUBLIC "-//W3C//DTD SVG 1.1//EN" "http://www.w3.org/Graphics/SVG/1.1/DTD/svg11.dtd">
<svg version="1.1" xmlns="http://www.w3.org/2000/svg" xmlns:xlink="http://www.w3.org/1999/xlink" x="0px" y="0px" viewBox="0 0 1000 1000" enable-background="new 0 0 1000 1000" xml:space="preserve">
<metadata> Svg Vector Icons : http://www.onlinewebfonts.com/icon </metadata>
<g><g transform="translate(0.000000,511.000000) scale(0.100000,-0.100000)"><path d="M8497.6,4996.6c-209.4-53.4-199.1-43.1-2434.4-2278.4C3595.9,253,3778.6,462.4,3778.6,109.3c0-170.4,6.2-209.4,55.4-309.9c49.3-96.5,390-447.5,2231.2-2288.7c1603.1-1603.1,2200.4-2188.1,2270.2-2223c486.5-242.2,1057.1,110.9,1057.1,654.8c0,117-43.1,275.1-98.5,369.5c-18.5,28.8-872.4,895-1900.7,1923.3l-1869.9,1874l1880.2,1882.2C9528,4120.1,9382.2,3951.8,9382.2,4286.4c0,158.1-8.2,201.2-55.4,301.7c-69.8,147.8-213.5,291.5-357.1,359.2C8848.6,5002.7,8612.5,5027.4,8497.6,4996.6z"/><path d="M3881.3,3498.2c-32.8-8.2-88.3-30.8-123.2-49.3c-32.8-16.4-743.1-714.3-1574.4-1547.7C1126.7,844.2,660.7,363.8,638.1,310.5c-47.2-117-39-295.6,18.5-416.7c71.8-151.9,3042-3111.7,3163.1-3152.8c45.2-16.4,156-28.7,246.3-26.7c137.5,0,182.7,10.3,273,55.4c121.1,63.6,217.6,182.7,252.5,310c28.7,104.7,12.3,273-32.8,363.3c-18.5,39-617.8,654.8-1330.1,1367L1931.3,109.3l1305.5,1307.5c1235.7,1237.7,1309.6,1315.7,1342.4,1420.4c92.4,281.2-53.4,566.5-330.5,650.7C4146,3518.7,3983.9,3522.8,3881.3,3498.2z"/></g></g>
</svg>