<svg width="14" height="14" viewBox="0 0 14 14" fill="none" xmlns="http://www.w3.org/2000/svg">
<path d="M1.89083 13.4144V7.52611L1.7844 7.62281C1.55407 7.83207 1.2 7.82359 0.979956 7.60354L0.599342 7.22293C0.371618 6.9952 0.371618 6.62599 0.599341 6.39827L6.58272 0.414893C6.81044 0.18717 7.17965 0.187169 7.40737 0.414893L13.4011 6.40865C13.6289 6.63637 13.6289 7.00559 13.4011 7.23331L13.0231 7.6113C12.7954 7.83902 12.4262 7.83902 12.1985 7.6113L12.1133 7.52611V13.4144C12.1133 13.7364 11.8522 13.9975 11.5302 13.9975H9.2894C8.96735 13.9975 8.70627 13.7364 8.70627 13.4144V10.5845H5.28722V13.4144C5.28722 13.7364 5.02615 13.9975 4.7041 13.9975H2.47396C2.15191 13.9975 1.89083 13.7364 1.89083 13.4144Z" fill="#221F20"/>
</svg>
