<svg width="12" height="15" viewBox="0 0 12 15" fill="none" xmlns="http://www.w3.org/2000/svg">
<path d="M2.00008 14.0245C1.63342 14.0245 1.31942 13.8938 1.05808 13.6325C0.796749 13.3711 0.666305 13.0573 0.666749 12.6911V2.02445C0.666749 1.65779 0.797416 1.34379 1.05875 1.08245C1.32008 0.821121 1.63386 0.690677 2.00008 0.691121H10.0001C10.3667 0.691121 10.6807 0.821788 10.9421 1.08312C11.2034 1.34445 11.3339 1.65823 11.3334 2.02445V12.6911C11.3334 13.0578 11.2027 13.3718 10.9414 13.6331C10.6801 13.8945 10.3663 14.0249 10.0001 14.0245H2.00008ZM5.33342 6.69112L7.00008 5.69112L8.66675 6.69112V2.02445H5.33342V6.69112Z" fill="#828282"/>
</svg>
