<svg width="18" height="18" viewBox="0 0 18 18" fill="none" xmlns="http://www.w3.org/2000/svg">
<path d="M10.2467 7.75387C9.58541 7.09288 8.68865 6.72156 7.75362 6.72156C6.81859 6.72156 5.92184 7.09288 5.26053 7.75387L2.76663 10.2468C2.10532 10.9081 1.7338 11.805 1.7338 12.7402C1.7338 13.6753 2.10532 14.5722 2.76663 15.2335C3.42795 15.8948 4.32489 16.2663 5.26013 16.2663C6.19537 16.2663 7.09231 15.8948 7.75362 15.2335L9.00017 13.987" stroke="#6FA5AB" stroke-width="1.47407" stroke-linecap="round" stroke-linejoin="round"/>
<path d="M7.7533 10.2461C8.4146 10.9071 9.31136 11.2785 10.2464 11.2785C11.1814 11.2785 12.0782 10.9071 12.7395 10.2461L15.2334 7.75321C15.8947 7.09193 16.2662 6.19504 16.2662 5.25986C16.2662 4.32467 15.8947 3.42779 15.2334 2.76651C14.5721 2.10524 13.6751 1.73373 12.7399 1.73373C11.8046 1.73373 10.9077 2.10524 10.2464 2.76651L8.99984 4.01298" stroke="#6FA5AB" stroke-width="1.47407" stroke-linecap="round" stroke-linejoin="round"/>
</svg>
