<svg width="23" height="22" viewBox="0 0 23 22" fill="none" xmlns="http://www.w3.org/2000/svg">
<path d="M0.0150482 11C0.0150486 16.0557 3.90845 20.1538 8.71149 20.1538C12.7638 20.1538 16.3826 17.2367 17.4148 13.2885L13.3926 13.2885C12.1919 13.2885 11.2185 12.2639 11.2185 11C11.2185 9.73613 12.1919 8.71155 13.3926 8.71155L17.4148 8.71155C16.3826 4.76336 12.7638 1.84618 8.71149 1.84618C3.90845 1.84618 0.0150477 5.94435 0.0150482 11Z" fill="#828282"/>
<path d="M21.1153 10.9961C21.1153 10.9961 18.5976 10.9961 16.9844 10.9961C15.3713 10.9961 14.4668 10.9961 12.8536 10.9961M19.376 13.7422L20.6804 12.3692L21.9849 10.9961L20.6804 9.62301C20.6804 9.62301 19.8854 8.78616 19.376 8.24994" stroke="#828282" stroke-width="1.90285" stroke-linecap="round" stroke-linejoin="round"/>
</svg>
