<svg width="24" height="24" viewBox="0 0 24 24" fill="none" xmlns="http://www.w3.org/2000/svg">
<mask id="path-1-inside-1_6767_55041" fill="white">
<path fill-rule="evenodd" clip-rule="evenodd" d="M22.9688 12C22.9688 18.0579 18.0579 22.9688 12 22.9688C5.94213 22.9688 1.03125 18.0579 1.03125 12C1.03125 5.94213 5.94213 1.03125 12 1.03125C18.0579 1.03125 22.9688 5.94213 22.9688 12ZM6.49473 12C6.49473 11.4952 6.90397 11.0859 7.40879 11.0859H11.0859V7.40736C11.0859 6.90253 11.4952 6.49329 12 6.49329C12.5048 6.49329 12.9141 6.90253 12.9141 7.40736V11.0859H16.5941C17.0989 11.0859 17.5081 11.4952 17.5081 12C17.5081 12.5048 17.0989 12.9141 16.5941 12.9141H12.9141V16.5926C12.9141 17.0974 12.5048 17.5067 12 17.5067C11.4952 17.5067 11.0859 17.0974 11.0859 16.5926V12.9141H7.40879C6.90397 12.9141 6.49473 12.5048 6.49473 12Z"/>
</mask>
<path fill-rule="evenodd" clip-rule="evenodd" d="M22.9688 12C22.9688 18.0579 18.0579 22.9688 12 22.9688C5.94213 22.9688 1.03125 18.0579 1.03125 12C1.03125 5.94213 5.94213 1.03125 12 1.03125C18.0579 1.03125 22.9688 5.94213 22.9688 12ZM6.49473 12C6.49473 11.4952 6.90397 11.0859 7.40879 11.0859H11.0859V7.40736C11.0859 6.90253 11.4952 6.49329 12 6.49329C12.5048 6.49329 12.9141 6.90253 12.9141 7.40736V11.0859H16.5941C17.0989 11.0859 17.5081 11.4952 17.5081 12C17.5081 12.5048 17.0989 12.9141 16.5941 12.9141H12.9141V16.5926C12.9141 17.0974 12.5048 17.5067 12 17.5067C11.4952 17.5067 11.0859 17.0974 11.0859 16.5926V12.9141H7.40879C6.90397 12.9141 6.49473 12.5048 6.49473 12Z" fill="#221F20"/>
<path d="M11.0859 11.0859V12.9141H12.9141V11.0859H11.0859ZM12.9141 7.40736H14.7422V7.40735L12.9141 7.40736ZM12.9141 11.0859H11.0859V12.9141H12.9141V11.0859ZM12.9141 12.9141V11.0859H11.0859V12.9141H12.9141ZM11.0859 12.9141H12.9141V11.0859H11.0859V12.9141ZM21.1406 12C21.1406 17.0482 17.0482 21.1406 12 21.1406V24.7969C19.0675 24.7969 24.7969 19.0675 24.7969 12H21.1406ZM12 21.1406C6.95177 21.1406 2.85937 17.0482 2.85937 12H-0.796875C-0.796875 19.0675 4.93248 24.7969 12 24.7969V21.1406ZM2.85937 12C2.85937 6.95177 6.95177 2.85937 12 2.85937V-0.796875C4.93248 -0.796875 -0.796875 4.93248 -0.796875 12H2.85937ZM12 2.85937C17.0482 2.85937 21.1406 6.95177 21.1406 12H24.7969C24.7969 4.93248 19.0675 -0.796875 12 -0.796875V2.85937ZM8.32286 12C8.32286 12.5048 7.91362 12.9141 7.40879 12.9141V9.25781C5.89433 9.25781 4.66661 10.4855 4.66661 12H8.32286ZM7.40879 12.9141H11.0859V9.25781H7.40879V12.9141ZM12.9141 11.0859V7.40736H9.25781V11.0859H12.9141ZM12.9141 7.40736C12.9141 7.91218 12.5048 8.32142 12 8.32142V4.66517C10.4855 4.66517 9.25781 5.89289 9.25781 7.40736H12.9141ZM12 8.32142C11.4952 8.32142 11.0859 7.91218 11.0859 7.40736L14.7422 7.40735C14.7422 5.89289 13.5145 4.66517 12 4.66517V8.32142ZM11.0859 7.40736V11.0859H14.7422V7.40736H11.0859ZM12.9141 12.9141H16.5941V9.25781H12.9141V12.9141ZM16.5941 12.9141C16.0892 12.9141 15.68 12.5048 15.68 12H19.3362C19.3362 10.4855 18.1085 9.25781 16.5941 9.25781V12.9141ZM15.68 12C15.68 11.4952 16.0892 11.0859 16.5941 11.0859V14.7422C18.1085 14.7422 19.3362 13.5145 19.3362 12H15.68ZM16.5941 11.0859H12.9141V14.7422H16.5941V11.0859ZM11.0859 12.9141V16.5926H14.7422V12.9141H11.0859ZM11.0859 16.5926C11.0859 16.0878 11.4952 15.6786 12 15.6786V19.3348C13.5145 19.3348 14.7422 18.1071 14.7422 16.5926H11.0859ZM12 15.6786C12.5048 15.6786 12.9141 16.0878 12.9141 16.5926H9.25781C9.25781 18.1071 10.4855 19.3348 12 19.3348V15.6786ZM12.9141 16.5926V12.9141H9.25781V16.5926H12.9141ZM11.0859 11.0859H7.40879V14.7422H11.0859V11.0859ZM7.40879 11.0859C7.91362 11.0859 8.32286 11.4952 8.32286 12H4.66661C4.66661 13.5145 5.89433 14.7422 7.40879 14.7422V11.0859Z" fill="#221F20" mask="url(#path-1-inside-1_6767_55041)"/>
</svg>
