<svg width="20" height="21" viewBox="0 0 20 21" fill="none" xmlns="http://www.w3.org/2000/svg">
<path d="M0.450049 8.57501L4.65005 4.37501C4.88338 4.14167 5.15838 3.97501 5.47505 3.87501C5.79172 3.77501 6.11671 3.75834 6.45005 3.82501L7.75005 4.10001C6.85005 5.16667 6.14172 6.13334 5.62505 7.00001C5.10838 7.86667 4.60838 8.91667 4.12505 10.15L0.450049 8.57501ZM5.57505 10.85C5.95838 9.65001 6.47938 8.51667 7.13805 7.45001C7.79671 6.38334 8.59238 5.38334 9.52505 4.45001C10.9917 2.98334 12.6667 1.88734 14.55 1.16201C16.4334 0.436674 18.1917 0.216007 19.8251 0.500007C20.1084 2.13334 19.8917 3.89167 19.175 5.77501C18.4584 7.65834 17.3667 9.33334 15.9 10.8C14.9834 11.7167 13.9834 12.5127 12.9 13.188C11.8167 13.8633 10.675 14.3923 9.47505 14.775L5.57505 10.85ZM12.475 7.85001C12.8584 8.23334 13.3294 8.42501 13.888 8.42501C14.4467 8.42501 14.9174 8.23334 15.3 7.85001C15.6834 7.46667 15.875 6.99601 15.875 6.43801C15.875 5.88001 15.6834 5.40901 15.3 5.02501C14.9167 4.64167 14.4457 4.45001 13.887 4.45001C13.3284 4.45001 12.8577 4.64167 12.475 5.02501C12.0917 5.40834 11.9 5.87934 11.9 6.43801C11.9 6.99667 12.0917 7.46734 12.475 7.85001ZM11.775 19.875L10.175 16.2C11.4084 15.7167 12.4627 15.2167 13.338 14.7C14.2134 14.1833 15.184 13.475 16.25 12.575L16.5 13.875C16.5667 14.2083 16.5501 14.5377 16.4501 14.863C16.35 15.1883 16.1834 15.4673 15.95 15.7L11.775 19.875ZM2.05005 14.05C2.63338 13.4667 3.34172 13.1707 4.17505 13.162C5.00838 13.1533 5.71672 13.441 6.30005 14.025C6.88338 14.6083 7.17505 15.3167 7.17505 16.15C7.17505 16.9833 6.88338 17.6917 6.30005 18.275C5.88338 18.6917 5.18772 19.05 4.21305 19.35C3.23838 19.65 1.89238 19.9167 0.175049 20.15C0.408382 18.4333 0.675049 17.0917 0.975049 16.125C1.27505 15.1583 1.63338 14.4667 2.05005 14.05Z" fill="#F68B21"/>
</svg>
