<svg width="16" height="16" viewBox="0 0 16 16" fill="none" xmlns="http://www.w3.org/2000/svg">
<path d="M14.2561 14.256L10.0854 10.0853M11.4756 6.60978C11.4756 7.24876 11.3497 7.88149 11.1052 8.47184C10.8607 9.06218 10.5023 9.59858 10.0504 10.0504C9.59861 10.5022 9.06221 10.8607 8.47187 11.1052C7.88152 11.3497 7.24879 11.4756 6.60981 11.4756C5.97083 11.4756 5.3381 11.3497 4.74775 11.1052C4.15741 10.8607 3.62101 10.5022 3.16918 10.0504C2.71735 9.59858 2.35893 9.06218 2.1144 8.47184C1.86988 7.88149 1.74402 7.24876 1.74402 6.60978C1.74402 5.31929 2.25666 4.08166 3.16918 3.16915C4.08169 2.25663 5.31932 1.74399 6.60981 1.74399C7.9003 1.74399 9.13793 2.25663 10.0504 3.16915C10.963 4.08166 11.4756 5.31929 11.4756 6.60978Z" stroke="#BDBDBD" stroke-width="1.49529" stroke-linecap="round" stroke-linejoin="round"/>
</svg>
