<svg width="16" height="16" viewBox="0 0 16 16" fill="none" xmlns="http://www.w3.org/2000/svg">
<path fill-rule="evenodd" clip-rule="evenodd" d="M5.82756 11.6148H4.38166C3.61075 11.6148 2.80609 11.5934 2.15265 11.1844C1.36439 10.6909 0.685854 9.77357 1.1533 8.26864C1.18815 7.85759 1.61316 6.9477 3.03442 6.59657C3.05532 6.0601 3.38556 4.88267 4.53929 4.46465C4.94397 4.2626 5.9726 4.00899 6.84973 4.61094C7.59141 3.6495 9.61821 2.05685 11.7919 3.37779C12.4329 3.76096 13.744 5.00803 13.8611 6.93092C14.4465 7.3874 15.1576 8.34455 14.9691 9.59775C14.8431 10.4353 14.3614 11.2818 13.5436 11.5019C12.9024 11.6744 11.8541 11.7582 10.1349 11.6148H9.06666V10.6707C9.49578 10.9132 10.0495 10.8645 10.4314 10.5124C10.9052 10.0756 10.9352 9.33756 10.4984 8.86382L8.75777 6.97568C8.53689 6.73608 8.22586 6.59979 7.89999 6.59979C7.57411 6.59979 7.26309 6.73608 7.04221 6.97568L5.30155 8.86382C4.86482 9.33756 4.89481 10.0756 5.36855 10.5124C5.75047 10.8645 6.30419 10.9132 6.73332 10.6707V11.6148H5.82756Z" fill="#221F20"/>
<path d="M6.27654 9.67175L7.82732 8.12096M7.82732 8.12096L9.37811 9.67175M7.82732 8.12096L7.82732 13.1248" stroke="#221F20" stroke-width="1.16667" stroke-linecap="round" stroke-linejoin="round"/>
</svg>
